<svg width="24" height="24" viewBox="0 0 24 24" fill="none" xmlns="http://www.w3.org/2000/svg">
<path d="M9.6598 17.4443C8.01845 17.3909 6.35624 17.2604 4.72558 17.0582C4.31698 17.0058 3.93566 16.8004 3.62975 16.4731C3.29067 16.103 3.07193 15.6313 2.99706 15.1083C2.79383 13.6942 2.69061 12.2802 2.69061 10.9046C2.69061 10.1833 2.7225 9.45105 2.77879 8.714H11.8146C12.4195 8.714 12.9099 8.22411 12.9099 7.6187C12.9099 7.01329 12.4195 6.52339 11.8146 6.52339H3.0488C3.1446 6.07522 3.33038 5.66281 3.62279 5.34359C3.93566 5.0088 4.31698 4.80343 4.72077 4.75101C9.18863 4.19587 13.718 4.19373 18.1805 4.75101C18.5891 4.80343 18.9704 5.00879 19.2795 5.33931C19.371 5.43879 19.4469 5.53719 19.5229 5.65164C19.8582 6.15544 20.5374 6.29342 21.0418 5.95649C21.545 5.62169 21.6819 4.94141 21.3466 4.43868C21.2033 4.22368 21.0599 4.03757 20.8845 3.84824C20.2283 3.14656 19.3678 2.69518 18.4559 2.57752C18.3224 2.56087 18.1878 2.55573 18.0543 2.54002V2.14218C18.0543 1.53677 17.5639 1.04688 16.959 1.04688C16.3541 1.04688 15.8637 1.53677 15.8637 2.14218V2.33565C12.9481 2.10782 10.0191 2.10528 7.10124 2.32997V2.14218C7.10124 1.53677 6.61081 1.04688 6.00593 1.04688C5.40106 1.04688 4.91063 1.53677 4.91063 2.14218V2.53413C4.7558 2.55212 4.60004 2.55827 4.44534 2.57752C3.53829 2.69518 2.67777 3.14656 2.0146 3.85573C1.37603 4.55313 0.966361 5.42916 0.828912 6.38862C0.610707 7.90536 0.5 9.42531 0.5 10.9046C0.5 12.3839 0.610707 13.9039 0.828912 15.4195C0.96636 16.3801 1.37603 17.2561 2.02155 17.961C2.67777 18.6627 3.53829 19.114 4.45069 19.2317C6.15247 19.4424 7.881 19.5783 9.58813 19.6328C9.60043 19.6339 9.61274 19.6339 9.6245 19.6339C10.2128 19.6339 10.6995 19.1665 10.7187 18.5739C10.7385 17.9695 10.2641 17.4636 9.6598 17.4443ZM23.4292 19.8671L23.3532 19.5847C22.9847 18.1407 21.937 16.9309 20.5508 16.3501C20.5037 16.3276 20.4593 16.3095 20.4294 16.2977C18.5217 15.5532 16.4263 15.5543 14.5229 16.2966C13.0735 16.8593 11.9798 18.0883 11.5969 19.5857L11.5231 19.8767C11.3637 20.5046 11.4835 21.172 11.8515 21.709C12.2355 22.2684 12.8489 22.6363 13.5356 22.7187C14.839 22.8738 16.1648 22.953 17.4756 22.953C18.7875 22.953 20.1144 22.8738 21.4193 22.7187C22.1044 22.6363 22.7179 22.2695 23.1019 21.7111C23.4698 21.1763 23.5907 20.5088 23.4329 19.882C23.4319 19.8767 23.4303 19.8713 23.4292 19.8671ZM21.2969 20.4693C21.284 20.4885 21.2445 20.5334 21.1589 20.5431C18.7228 20.8329 16.2306 20.834 13.7955 20.5431C13.71 20.5334 13.6709 20.4885 13.6463 20.4158L13.7196 20.127C13.9271 19.3141 14.524 18.6466 15.3171 18.3386C16.0161 18.0658 16.7424 17.9278 17.4756 17.9278C18.2088 17.9278 18.9346 18.0658 19.5726 18.3129C19.586 18.3182 19.6159 18.3311 19.6432 18.3428C19.663 18.3525 19.6828 18.361 19.7037 18.3696C20.4711 18.6926 21.0279 19.3322 21.2338 20.1377L21.3124 20.4318L22.3708 20.1494L21.2969 20.4693Z" fill="white"/>
<path d="M17.4779 6.52344C15.0621 6.52344 13.0967 8.51723 13.0967 10.9688C13.0967 13.4204 15.0621 15.4142 17.4779 15.4142C19.8937 15.4142 21.8591 13.4204 21.8591 10.9688C21.8591 8.51723 19.8937 6.52344 17.4779 6.52344ZM17.4779 13.2236C16.2697 13.2236 15.2873 12.2117 15.2873 10.9688C15.2873 9.72592 16.2697 8.71405 17.4779 8.71405C18.686 8.71405 19.6685 9.72592 19.6685 10.9688C19.6685 12.2117 18.686 13.2236 17.4779 13.2236Z" fill="white"/>
</svg>
