<svg id="Group_36794" data-name="Group 36794" xmlns="http://www.w3.org/2000/svg" width="27.281" height="26.414" viewBox="0 0 27.281 26.414">
  <g id="_8d03a371c532e907d2aa6a7e98fd55e1" data-name="8d03a371c532e907d2aa6a7e98fd55e1" transform="translate(0)">
    <ellipse id="Ellipse_466" data-name="Ellipse 466" cx="13.641" cy="13.207" rx="13.641" ry="13.207" fill="#f5b300"/>
    <path id="Path_7823" data-name="Path 7823" d="M19.568,13.912c.473.123.947.2,1.42.327s.947.2,1.42.327c.129.041.172,0,.215-.123.172-.695.344-1.348.516-2.043.043-.123.086-.163.215-.123.43.123.818.2,1.248.286.129.041.129.082.086.163-.172.654-.344,1.348-.516,2a.3.3,0,0,1-.043.163c.344.082.732.163,1.076.245.043,0,.086-.082.129-.123.129-.531.258-1.021.43-1.553l.129-.49c0-.082.043-.123.129-.082.43.123.861.2,1.334.327.043,0,.043.041.086.041-.129.531-.258,1.021-.387,1.512a3.268,3.268,0,0,1-.172.613c-.043.123,0,.163.129.2l1.42.613a3.586,3.586,0,0,1,1.119.981,2.34,2.34,0,0,1,.258,1.92,2.5,2.5,0,0,1-.645,1.185,2.664,2.664,0,0,1-.947.531c-.043,0-.086.041-.172.041.172.123.344.2.516.327a2.582,2.582,0,0,1,1.033,1.389,3.047,3.047,0,0,1-.086,1.389,3.934,3.934,0,0,1-.775,1.512,2.717,2.717,0,0,1-1.764.9,9.376,9.376,0,0,1-2.625-.082.182.182,0,0,0-.258.123c-.172.654-.344,1.348-.516,2-.043.163-.043.2-.258.123-.387-.082-.818-.2-1.2-.286-.129-.041-.129-.082-.086-.163.172-.695.344-1.389.559-2.043,0-.082.043-.123-.043-.163-.344-.082-.688-.163-1.076-.245-.086.368-.215.735-.3,1.1s-.215.735-.3,1.1c-.043.082-.043.123-.172.082-.43-.123-.861-.2-1.291-.286-.129-.041-.129-.082-.086-.163.172-.695.344-1.389.559-2.043,0-.041.043-.082.043-.163-.99-.245-1.979-.49-3.012-.735.086-.163.129-.286.215-.449.172-.368.344-.735.473-1.062.043-.123.086-.123.215-.123a7.835,7.835,0,0,0,.947.2.479.479,0,0,0,.645-.368c.559-2.084,1.119-4.167,1.635-6.292a.705.705,0,0,0-.516-.817c-.387-.123-.775-.2-1.119-.286-.086,0-.129-.041-.086-.123.129-.449.258-.94.387-1.389-.172.123-.172.123-.129.082ZM21.762,24a.153.153,0,0,1,.086.041A12.469,12.469,0,0,0,24,24.453a3.507,3.507,0,0,0,1.463-.123,1.279,1.279,0,0,0,.688-1.92,2.6,2.6,0,0,0-.9-.735,9.026,9.026,0,0,0-2.539-.735c-.129-.041-.129,0-.172.123-.086.409-.215.776-.3,1.185C22.064,22.819,21.935,23.391,21.762,24Zm3.615-4.167a2.945,2.945,0,0,0,.473-.082A1.177,1.177,0,0,0,26.668,18a2.025,2.025,0,0,0-.99-.776,13.678,13.678,0,0,0-1.85-.531c-.129-.041-.172,0-.215.123-.215.858-.43,1.675-.688,2.533-.043.082,0,.123.086.163.172.041.3.082.473.123a14.093,14.093,0,0,0,1.893.2Z" transform="translate(-9.628 -7.33)" fill="#fff"/>
  </g>
</svg>
