<svg xmlns="http://www.w3.org/2000/svg" xmlns:xlink="http://www.w3.org/1999/xlink" width="22" height="22" viewBox="0 0 22 22">
  <defs>
    <linearGradient id="linear-gradient" x1="-0.024" y1="1.312" x2="1" y2="-0.06" gradientUnits="objectBoundingBox">
      <stop offset="0" stop-color="#322bf2"/>
      <stop offset="1" stop-color="#013e5a"/>
    </linearGradient>
  </defs>
  <g id="_8f19a0b6fde254db12b357c4a3137ce4" data-name="8f19a0b6fde254db12b357c4a3137ce4" transform="translate(-2 -2)">
    <path id="Path_175" data-name="Path 175" d="M24,13A11,11,0,1,1,13,2,11,11,0,0,1,24,13Z" fill="url(#linear-gradient)"/>
    <path id="Path_176" data-name="Path 176" d="M16.45,8.981a.788.788,0,0,1,0,1.114L11.2,15.349a.788.788,0,0,1-1.114,0l-2.1-2.1A.788.788,0,1,1,9.1,12.133l1.544,1.544,2.348-2.348,2.348-2.348A.788.788,0,0,1,16.45,8.981Z" transform="translate(0.784 0.835)" fill="#fff"/>
  </g>
</svg>
