<svg width="22" height="22" viewBox="0 0 22 22" fill="none" xmlns="http://www.w3.org/2000/svg">
<g clip-path="url(#clip0_3025_2851)">
<path d="M21.8809 8.20268C21.6657 7.48529 21.2353 6.91137 20.5896 6.57659C19.7766 6.14616 18.82 6.19398 18.1505 6.31355L16.7635 1.41137C16.6679 1.07659 16.4048 0.813548 16.07 0.741809C15.7353 0.67007 15.3766 0.765722 15.1374 1.02877C11.7179 4.85485 10.307 5.78746 6.52874 7.43746L3.56352 8.29833C0.957003 9.03964 -0.549519 11.8135 0.191786 14.4201C0.550481 15.6875 1.38744 16.7635 2.55918 17.4092C3.30048 17.8157 4.11352 18.0309 4.92657 18.0309C5.30918 18.0309 5.7157 17.9831 6.09831 17.8875L6.40918 19.0114C6.57657 19.6092 6.91135 20.1353 7.34179 20.5657L7.84396 21.044C8.03526 21.2114 8.27439 21.307 8.51352 21.307C8.77657 21.307 9.0157 21.2114 9.207 21.0201C9.5657 20.6375 9.5657 20.0396 9.15918 19.657L8.657 19.1788C8.4657 18.9875 8.32222 18.7483 8.25048 18.4853L7.93961 17.3614L9.32657 16.9549C13.2961 16.357 15.0896 16.4049 19.944 17.7918C20.0396 17.8157 20.1113 17.8396 20.207 17.8396C20.4461 17.8396 20.7092 17.744 20.8766 17.5527C21.1157 17.3135 21.2114 16.9549 21.1157 16.6201L19.7048 11.7179C20.3266 11.4788 21.1635 11.0483 21.6418 10.2592C22.0005 9.63746 22.0961 8.94398 21.8809 8.20268ZM3.49179 15.7353C2.77439 15.3527 2.27222 14.6831 2.03309 13.9179C1.57874 12.2918 2.51135 10.6179 4.08961 10.1396L6.24179 9.5179L7.22222 12.9853L7.89179 15.3766L5.73961 15.9983C4.99831 16.2135 4.18526 16.1179 3.49179 15.7353ZM13.2244 14.6831C12.1483 14.6831 11.0722 14.7788 9.80483 14.9462L8.41787 10.044L8.08309 8.84833C11.0961 7.46137 12.7222 6.38529 15.4005 3.58746L18.7961 15.5201C16.5244 14.9222 14.8983 14.6831 13.2244 14.6831ZM20.0157 9.25485C19.8722 9.5179 19.5135 9.7092 19.1787 9.85268L18.7005 8.17877C19.0592 8.13094 19.4657 8.13094 19.7287 8.27442C19.8483 8.34616 19.9679 8.44181 20.0635 8.70485C20.1353 8.99181 20.0635 9.13529 20.0157 9.25485ZM13.9418 7.67659C14.2048 8.0592 14.1331 8.58529 13.7505 8.84833C12.8657 9.47007 11.8614 10.0201 11.8135 10.044C11.694 10.1157 11.5505 10.1396 11.4309 10.1396C11.12 10.1396 10.8331 9.97224 10.6896 9.68529C10.4744 9.27877 10.6418 8.77659 11.0483 8.56137C11.0483 8.56137 12.0048 8.0592 12.77 7.5092C13.1527 7.19833 13.6787 7.29398 13.9418 7.67659Z" fill="white"/>
</g>
<defs>
<clipPath id="clip0_3025_2851">
<rect width="22" height="22" fill="white"/>
</clipPath>
</defs>
</svg>
