<svg xmlns="http://www.w3.org/2000/svg" width="24" height="24" viewBox="0 0 24 24">
  <g id="Group_36909" data-name="Group 36909" transform="translate(-1142 -370)">
    <path id="_0be1d8aa3b29fc0d0c5ae69296a7f21f" data-name="0be1d8aa3b29fc0d0c5ae69296a7f21f" d="M10.659,4.11H15.1A.555.555,0,1,0,15.1,3h-4.44a.555.555,0,1,0,0,1.11Zm8.872,5.231,1.509-1.509a.555.555,0,0,0-.785-.785L18.747,8.557a8.843,8.843,0,0,0-11.735,0L5.5,7.047a.555.555,0,0,0-.785.785L6.227,9.341a8.879,8.879,0,1,0,13.3,0ZM12.879,22.978A7.768,7.768,0,0,1,7.371,9.731c.006-.005.013-.007.019-.012S7.4,9.706,7.4,9.7a7.76,7.76,0,0,1,10.964.013l.009.009a7.765,7.765,0,0,1-5.5,13.255Zm.555-9.332V11.324a.555.555,0,0,0-1.11,0v2.322a1.665,1.665,0,1,0,1.11,0Z" transform="translate(1141.121 368.456)" fill="#fff"/>
    <rect id="Rectangle_1168" data-name="Rectangle 1168" width="24" height="24" transform="translate(1142 370)" fill="none"/>
  </g>
</svg>
