<svg width="24" height="24" viewBox="0 0 24 24" fill="none" xmlns="http://www.w3.org/2000/svg">
<path d="M13.2467 16.4258C12.9647 16.3139 12.6763 16.219 12.383 16.1418C12.2777 16.112 12.1647 16.0814 12.0449 16.0494C11.8598 15.9989 11.7092 15.956 11.5941 15.9232C11.4407 15.8792 11.3771 15.8584 11.3552 15.8505C11.2589 15.8167 11.1733 15.7581 11.107 15.6805C11.0632 15.6267 11.0399 15.5592 11.0409 15.4898C11.0434 15.427 11.0611 15.3657 11.0923 15.3111C11.1235 15.2566 11.1674 15.2103 11.2202 15.1762C11.3269 15.1048 11.4494 15.0606 11.5771 15.0475C11.6902 15.0311 11.8044 15.0235 11.9187 15.0248C12.0485 15.0225 12.178 15.0389 12.3032 15.0736C12.3927 15.0984 12.4767 15.1403 12.5503 15.1969C12.6338 15.2633 12.7 15.349 12.7431 15.4466C12.803 15.5746 12.9108 15.6739 13.0433 15.723C13.1758 15.7721 13.3223 15.7671 13.4511 15.709C13.5799 15.651 13.6807 15.5446 13.7317 15.4128C13.7827 15.2811 13.7798 15.1345 13.7237 15.0049C13.6824 14.909 13.6307 14.818 13.5696 14.7334C13.3932 14.5099 13.1558 14.3424 12.8862 14.2512C12.7566 14.2023 12.623 14.1648 12.487 14.1389V13.748H11.412V14.1185C11.3168 14.1341 11.2228 14.1558 11.1304 14.1835C10.9334 14.2353 10.7469 14.3212 10.5795 14.4373C10.3981 14.5662 10.2492 14.7355 10.1445 14.9318C10.0326 15.142 9.97706 15.3776 9.98315 15.6156C9.98923 15.8536 10.0568 16.0861 10.1792 16.2903C10.3173 16.5109 10.5175 16.6858 10.7547 16.7931C11.001 16.9006 11.2552 16.9889 11.5152 17.0572C11.6601 17.0989 11.821 17.1415 11.9997 17.1869C12.1132 17.2152 12.2152 17.2428 12.3049 17.2675C12.4669 17.3049 12.6237 17.362 12.7719 17.4375C12.8255 17.4685 12.8697 17.5135 12.8999 17.5675C12.9301 17.6216 12.9451 17.6828 12.9433 17.7447C12.9417 17.8261 12.9214 17.906 12.884 17.9782C12.8466 18.0505 12.7931 18.1132 12.7276 18.1615C12.6088 18.2521 12.4682 18.3097 12.3199 18.3283C12.2152 18.3454 12.1092 18.3535 12.003 18.3525C11.8644 18.3542 11.7262 18.3382 11.5916 18.3049C11.4647 18.2735 11.3461 18.2146 11.2445 18.1324C11.1281 18.0336 11.04 17.9058 10.989 17.762C10.9633 17.6962 10.925 17.6362 10.8762 17.5853C10.8274 17.5343 10.769 17.4935 10.7044 17.4652C10.6398 17.4368 10.5702 17.4215 10.4997 17.42C10.4292 17.4185 10.359 17.4309 10.2933 17.4565C10.2276 17.4822 10.1675 17.5205 10.1166 17.5693C10.0657 17.6181 10.0249 17.6765 9.9965 17.7411C9.96813 17.8057 9.95277 17.8753 9.95129 17.9458C9.94981 18.0163 9.96223 18.0865 9.98786 18.1522C10.0968 18.438 10.2797 18.6898 10.518 18.8816C10.78 19.0777 11.0877 19.204 11.412 19.2486V19.6293H12.487V19.2567C12.6839 19.2251 12.8761 19.1689 13.0591 19.0896C13.357 18.9662 13.6122 18.7582 13.793 18.4912C13.9595 18.246 14.0492 17.9568 14.0504 17.6604C14.0589 17.3893 13.9831 17.1222 13.8334 16.896C13.6865 16.6867 13.483 16.5236 13.2467 16.4258Z" fill="white"/>
<path d="M20.3399 17.9052L16.5806 9.86967L16.6266 9.62391L17.8178 3.258C17.8566 3.03658 17.8166 2.80856 17.7046 2.61364C17.5926 2.41871 17.4158 2.26925 17.205 2.19126L12.3735 0.318114C12.1787 0.24228 11.9654 0.227602 11.7621 0.276036C11.5588 0.324469 11.375 0.433716 11.2353 0.589219C11.0962 0.750682 11.0136 0.953237 11.0003 1.16598L10.8913 2.51919L7.76169 1.967C7.55519 1.93032 7.34242 1.95765 7.1519 2.04533C7.05229 2.08955 6.96089 2.15032 6.88157 2.22505C6.76776 2.33087 6.68175 2.46308 6.63112 2.61001C6.58049 2.75694 6.5668 2.91407 6.59126 3.06754L7.62728 9.36817L3.66059 17.9052C3.36915 18.5323 3.24047 19.2228 3.28645 19.9128C3.33243 20.6028 3.5516 21.27 3.92368 21.8529C4.29577 22.4358 4.80878 22.9155 5.4153 23.2477C6.02182 23.5799 6.70229 23.7538 7.39382 23.7535H16.6074C17.299 23.7539 17.9795 23.58 18.586 23.2478C19.1925 22.9156 19.7055 22.4359 20.0776 21.853C20.4496 21.27 20.6687 20.6027 20.7145 19.9127C20.7604 19.2227 20.6315 18.5322 20.3399 17.9052ZM10.7369 4.45301L10.6962 4.97295C10.6882 5.10164 10.7057 5.23064 10.7477 5.35253C10.7898 5.47442 10.8555 5.58679 10.9412 5.68316C11.0269 5.77953 11.1307 5.858 11.2469 5.91405C11.363 5.97009 11.489 6.00261 11.6178 6.00973C11.6439 6.01203 11.6685 6.0128 11.6946 6.0128C11.9427 6.01649 12.1832 5.92679 12.3682 5.76149C12.5533 5.59618 12.6695 5.36735 12.6938 5.12039L12.8942 2.59983L15.702 3.68808L14.732 8.86283C13.962 9.32296 13.0882 9.58117 12.1918 9.61353C11.2954 9.64589 10.4053 9.45133 9.60411 9.04791L8.79081 4.11047L10.7369 4.45301ZM12.0002 20.5617C11.2345 20.5617 10.486 20.3346 9.84938 19.9092C9.21272 19.4838 8.71651 18.8792 8.42349 18.1718C8.13046 17.4644 8.0538 16.6859 8.20318 15.9349C8.35256 15.184 8.72128 14.4941 9.26272 13.9527C9.80415 13.4113 10.494 13.0425 11.245 12.8932C11.996 12.7438 12.7744 12.8204 13.4818 13.1135C14.1892 13.4065 14.7939 13.9027 15.2193 14.5394C15.6447 15.176 15.8717 15.9245 15.8717 16.6902C15.8707 17.7167 15.4624 18.7008 14.7366 19.4266C14.0108 20.1524 13.0267 20.5606 12.0002 20.5617Z" fill="white"/>
</svg>
