<svg width="22" height="22" viewBox="0 0 22 22" fill="none" xmlns="http://www.w3.org/2000/svg">
<g clip-path="url(#clip0_107_67)">
<path d="M4.19805 21.6364C8.73254 22.1211 13.267 22.1211 17.8015 21.6364C19.6496 21.422 21.4216 19.6496 21.6365 17.8015C22.1212 13.267 22.1212 8.73248 21.6365 4.19799C21.4221 2.3499 19.6496 0.577871 17.8015 0.363027C13.267 -0.12166 8.73254 -0.12166 4.19805 0.363027C2.34996 0.577871 0.57793 2.3499 0.363516 4.19799C-0.121172 8.73248 -0.121172 13.267 0.363516 17.8015C0.57793 19.6496 2.35039 21.4216 4.19848 21.6364H4.19805ZM4.6982 4.53271C4.7098 4.52197 4.72141 4.51123 4.73344 4.50049C5.18074 4.10775 5.54727 3.87271 5.82785 3.71459C6.29449 3.46064 6.96266 3.55389 7.35797 3.9101C7.60031 4.12709 8.20445 4.79439 8.56453 5.27221C8.9332 5.74229 9.43164 6.50971 9.58633 6.80877C9.8407 7.29775 9.81234 8.03424 9.50469 8.49143C9.31477 8.76557 9.04105 9.11834 8.61094 9.53084C8.60836 9.53299 8.60621 9.53557 8.60363 9.53771C8.22852 9.89393 8.16492 10.4676 8.45539 10.896C9.14848 11.95 10.05 12.8515 11.104 13.5446C11.5324 13.8346 12.106 13.7714 12.4622 13.3963C12.4644 13.3937 12.467 13.3916 12.4691 13.389C12.8812 12.9589 13.2344 12.6852 13.5081 12.4953C13.9653 12.1876 14.7022 12.1592 15.1907 12.4136C15.4898 12.5683 16.2572 13.0667 16.7273 13.4354C17.2055 13.7955 17.8729 14.3996 18.0894 14.642C18.4461 15.0377 18.5389 15.7059 18.2849 16.1721C18.1268 16.4522 17.8918 16.8192 17.499 17.2665C17.4883 17.2781 17.4775 17.2897 17.4668 17.3017C15.693 19.3634 11.4078 18.6694 7.37172 14.6278C3.32965 10.5917 2.63613 6.30646 4.69777 4.53271H4.6982Z" fill="white"/>
</g>
<defs>
<clipPath id="clip0_107_67">
<rect width="22" height="22" fill="white"/>
</clipPath>
</defs>
</svg>
