<svg width="24" height="24" viewBox="0 0 24 24" fill="none" xmlns="http://www.w3.org/2000/svg">
<path d="M11 5C10.4473 5 10 5.4478 10 6V9C10 9.0128 10.0068 9.0234 10.0073 9.0361C10.0115 9.1532 10.0295 9.2704 10.0762 9.3828L10.0777 9.3854C10.0815 9.3945 10.0886 9.4012 10.0926 9.4101C10.1377 9.51 10.199 9.5974 10.2712 9.6752C10.2949 9.7008 10.3212 9.721 10.3474 9.744C10.4111 9.7998 10.4797 9.8462 10.5555 9.8843C10.5874 9.9004 10.617 9.9168 10.6508 9.9295C10.7614 9.9712 10.8773 10 11 10H14C14.5527 10 15 9.5522 15 9C15 8.4478 14.5527 8 14 8H13.4141L17.7071 3.707C18.0977 3.3164 18.0977 2.6836 17.7071 2.2929C17.5117 2.0977 17.2559 2 17 2C16.7441 2 16.4883 2.0977 16.293 2.293L12 6.5859V6C12 5.4478 11.5527 5 11 5ZM19.168 13.3525L18.7178 13.6528C17.878 14.2124 16.9512 14.6045 15.9805 14.8164C15.9932 14.7129 16 14.6069 16 14.5C16 13.1216 14.8789 12 13.5 12H10.2363L6.4472 10.1055C6.3086 10.0361 6.1553 10 6 10C3.7939 10 2 11.7944 2 14V18C2 20.2056 3.7939 22 6 22H13.0518C17.0655 22 20.6817 19.6157 22.2627 15.9258C22.542 15.2754 22.4756 14.5347 22.0859 13.9439C21.4668 13.0063 20.1094 12.728 19.168 13.3525ZM13.0518 20H6C4.8975 20 4 19.103 4 18V14C4 12.9692 4.7842 12.1182 5.7861 12.0112L9.5527 13.8945C9.6914 13.9639 9.8447 14 10 14H13.5C13.7754 14 14 14.2241 14 14.5C14 14.7759 13.7754 15 13.5 15H9C8.4473 15 8 15.4478 8 16C8 16.5522 8.4473 17 9 17H14.2686C16.254 17 18.1758 16.418 19.8272 15.3169L20.333 15L20.4248 15.1382C19.1582 18.0918 16.2646 20 13.0518 20Z" fill="white"/>
</svg>
