<svg width="22" height="22" viewBox="0 0 22 22" fill="none" xmlns="http://www.w3.org/2000/svg">
<path d="M17.1417 14.025C16.775 13.6583 16.225 13.6583 15.8583 14.025L15.5833 14.3L15.3083 14.025C14.9417 13.6583 14.3917 13.6583 14.025 14.025C13.6583 14.3917 13.6583 14.9417 14.025 15.3083L14.3 15.5833L14.025 15.8583C13.6583 16.225 13.6583 16.775 14.025 17.1417C14.2083 17.325 14.4833 17.4167 14.6667 17.4167C14.85 17.4167 15.125 17.325 15.3083 17.1417L15.5833 16.8667L15.8583 17.1417C16.0417 17.325 16.3167 17.4167 16.5 17.4167C16.6833 17.4167 16.9583 17.325 17.1417 17.1417C17.5083 16.775 17.5083 16.225 17.1417 15.8583L16.8667 15.5833L17.1417 15.3083C17.5083 14.9417 17.5083 14.3917 17.1417 14.025Z" fill="white"/>
<path d="M20.0888 9.93531C20.0888 7.70154 18.2612 5.8739 16.0274 5.8739H12.5752L11.6614 4.04627C10.9507 2.62478 9.6307 1.8125 8.00614 1.8125H5.8739C3.64013 1.8125 1.8125 3.64013 1.8125 5.8739V15.0121C1.8125 17.2458 3.64013 19.0735 5.8739 19.0735H11.966C12.8798 20.2919 14.3013 21.1042 16.0274 21.1042C18.8704 21.1042 21.1042 18.8704 21.1042 16.0274C21.1042 14.9105 20.698 13.8952 20.0888 12.9814V9.93531ZM5.8739 3.8432H8.00614C8.81842 3.8432 9.42763 4.24934 9.83377 4.96009L10.3414 5.8739H3.8432C3.8432 4.75702 4.75702 3.8432 5.8739 3.8432ZM5.8739 17.0428C4.75702 17.0428 3.8432 16.1289 3.8432 15.0121V7.90461H16.0274C17.1443 7.90461 18.0581 8.81842 18.0581 9.93531V11.3568C17.4489 11.0522 16.7382 10.9507 16.0274 10.9507C13.1844 10.9507 10.9507 13.1844 10.9507 16.0274C10.9507 16.332 10.9507 16.7382 11.0522 17.0428H5.8739ZM16.0274 19.0735C14.3013 19.0735 12.9814 17.7535 12.9814 16.0274C12.9814 14.3013 14.3013 12.9814 16.0274 12.9814C17.7535 12.9814 19.0735 14.3013 19.0735 16.0274C19.0735 17.7535 17.7535 19.0735 16.0274 19.0735Z" fill="white"/>
</svg>
