<svg xmlns="http://www.w3.org/2000/svg" width="28" height="28" viewBox="0 0 28 28">
  <g id="Group_36918" data-name="Group 36918" transform="translate(7734 -11784)">
    <g id="Iconly_Light-Outline_Edit" data-name="Iconly/Light-Outline/Edit" transform="translate(-7733.202 11785.178)">
      <g id="Edit" transform="translate(0 0)">
        <path id="Combined-Shape" d="M25.389,23.614a1.016,1.016,0,1,1,0,2.031H15.568a1.016,1.016,0,1,1,0-2.031ZM19.114.885,21.447,2.7a3.82,3.82,0,0,1,1.71,2.4,3.876,3.876,0,0,1-.5,2.98c0,.006-.008.012-.021.029l-.01.014c-.092.121-.49.625-2.5,3.144a.813.813,0,0,1-.063.094,1.02,1.02,0,0,1-.11.122l-.434.545-.309.387-2.288,2.865-.46.576L9.679,24.345a3.313,3.313,0,0,1-2.554,1.238L2.2,25.645H2.184a1.016,1.016,0,0,1-.988-.781l-1.109-4.7A3.211,3.211,0,0,1,.71,17.405L13.465,1.452l.015-.018A4.068,4.068,0,0,1,19.114.885Zm-7.071,5.6L2.3,18.674A1.19,1.19,0,0,0,2.064,19.7L2.986,23.6,7.1,23.551a1.284,1.284,0,0,0,.993-.477l4.38-5.481.564-.706h0l.565-.707,4.21-5.269Zm3-3.751L13.311,4.895l5.769,4.429c1.11-1.391,1.841-2.307,1.909-2.394a1.841,1.841,0,0,0,.192-1.359,1.911,1.911,0,0,0-.883-1.2c-.1-.066-2.378-1.837-2.448-1.893A2.027,2.027,0,0,0,15.044,2.731Z" transform="translate(0 0)" fill="#fff" fill-rule="evenodd"/>
      </g>
    </g>
    <rect id="Rectangle_1169" data-name="Rectangle 1169" width="28" height="28" transform="translate(-7734 11784)" fill="none"/>
  </g>
</svg>
