<svg xmlns="http://www.w3.org/2000/svg" width="24" height="24" viewBox="0 0 24 24">
  <g id="Group_36788" data-name="Group 36788" transform="translate(-1208 -2904)">
    <g id="Iconly_Light-Outline_Swap" data-name="Iconly/Light-Outline/Swap" transform="translate(1207.055 2903.028)">
      <g id="Swap" transform="translate(2.083 3.082)">
        <path id="Combined-Shape" d="M16.451,3.093a.832.832,0,0,1,.824.719l.008.113V17.014l3.1-3.114a.832.832,0,0,1,1.26,1.08l-.08.094-4.523,4.544a.911.911,0,0,1-.084.073l.084-.073a.836.836,0,0,1-.131.107l-.05.03c-.016.01-.032.018-.049.026l-.049.021a.661.661,0,0,1-.065.024l-.04.011a.686.686,0,0,1-.072.015l-.035,0a.673.673,0,0,1-.082.006h-.032c-.027,0-.054,0-.081-.005l.1,0a.837.837,0,0,1-.133-.011.68.68,0,0,1-.072-.014l-.038-.011a.678.678,0,0,1-.071-.025l-.037-.017a.587.587,0,0,1-.057-.029l-.05-.032c-.013-.008-.025-.017-.038-.026l-.009-.008a.848.848,0,0,1-.083-.073h0l-4.523-4.544a.832.832,0,0,1,1.086-1.255l.093.081,3.1,3.116V3.925A.832.832,0,0,1,16.451,3.093ZM5.438.083h.016q.041,0,.081.006l-.1-.005a.838.838,0,0,1,.133.011.654.654,0,0,1,.071.014L5.685.12a.633.633,0,0,1,.064.022l.045.021a.564.564,0,0,1,.053.027l.044.027a.519.519,0,0,1,.044.03l.093.081,4.523,4.544A.832.832,0,0,1,9.465,6.126l-.093-.081L6.27,2.928V16.02a.832.832,0,0,1-1.656.113l-.008-.113V2.929L1.5,6.045a.832.832,0,0,1-1.083.083l-.093-.08A.832.832,0,0,1,.245,4.965l.08-.093L4.849.327,4.9.282,4.933.254,4.849.327A.835.835,0,0,1,4.98.22L5.03.19c.016-.01.032-.018.049-.026L5.129.143A.653.653,0,0,1,5.194.119L5.235.108A.662.662,0,0,1,5.3.093L5.343.088A.68.68,0,0,1,5.421.082Z" transform="translate(-0.083 -0.082)" fill="#fff"/>
      </g>
    </g>
    <rect id="Rectangle_1113" data-name="Rectangle 1113" width="24" height="24" transform="translate(1208 2904)" fill="none"/>
  </g>
</svg>
