<svg width="22" height="22" viewBox="0 0 22 22" fill="none" xmlns="http://www.w3.org/2000/svg">
<path d="M11 1C5.5 1 1 5.5 1 11C1 16.5 5.5 21 11 21C16.5 21 21 16.5 21 11C21 5.5 16.5 1 11 1ZM11 16C10.5 16 10 15.5 10 15C10 14.5 10.5 14 11 14C11.5 14 12 14.5 12 15C12 15.5 11.5 16 11 16ZM12 12C12 12.5 11.5 13 11 13C10.5 13 10 12.5 10 12V11.3C10 10.9 10.3 10.5 10.7 10.4L11.4 10.2C11.8 10.1 12 9.7 12 9.3C12 8.8 11.6 8.4 11.1 8.4H11C10.7 8.4 10.4 8.6 10.2 8.8C9.9 9.3 9.3 9.4 8.8 9.1C8.3 8.7 8.2 8.1 8.5 7.6C9 6.8 10 6.3 10.9 6.3H11C12.6 6.3 13.9 7.6 13.9 9.2C14 10.5 13.2 11.6 12 12Z" fill="white"/>
</svg>
