<svg xmlns="http://www.w3.org/2000/svg" width="24" height="24" viewBox="0 0 24 24">
  <g id="dashboard_active" transform="translate(-429 -178)">
    <g id="Iconly_Two-tone_Category" data-name="Iconly/Two-tone/Category" transform="translate(427.99 176.99)">
      <g id="Category" transform="translate(3 3)">
        <path id="Stroke-1" d="M0,3.893C0,.973.032,0,3.894,0S7.786.973,7.786,3.893,7.8,7.785,3.894,7.785,0,6.812,0,3.893Z" transform="translate(-0.001 0)" fill="none" stroke="#fff" stroke-linecap="round" stroke-linejoin="round" stroke-width="1.5" fill-rule="evenodd"/>
        <path id="Stroke-3" d="M11,3.893C11,.973,11.032,0,14.894,0s3.893.973,3.893,3.893.012,3.893-3.893,3.893S11,6.812,11,3.893Z" transform="translate(1.233 0)" fill="none" stroke="#fff" stroke-linecap="round" stroke-linejoin="round" stroke-width="1.5" fill-rule="evenodd"/>
        <path id="Stroke-5" d="M0,14.893C0,11.973.032,11,3.894,11s3.893.973,3.893,3.893.012,3.893-3.893,3.893S0,17.812,0,14.893Z" transform="translate(-0.001 1.234)" fill="none" stroke="#fff" stroke-linecap="round" stroke-linejoin="round" stroke-width="1.5" fill-rule="evenodd"/>
        <path id="Stroke-7" d="M11,14.893c0-2.92.031-3.893,3.893-3.893s3.893.973,3.893,3.893.012,3.893-3.893,3.893S11,17.812,11,14.893Z" transform="translate(1.233 1.234)" fill="none" stroke="#fff" stroke-linecap="round" stroke-linejoin="round" stroke-width="1.5" fill-rule="evenodd"/>
      </g>
    </g>
    <rect id="Rectangle_1079" data-name="Rectangle 1079" width="24" height="24" transform="translate(429 178)" fill="none"/>
  </g>
</svg>
