<svg width="68" height="67" viewBox="0 0 68 67" fill="none" xmlns="http://www.w3.org/2000/svg">
<circle cx="33.9297" cy="33.4878" r="33.3647" fill="url(#paint0_linear_1_29)" fill-opacity="0.2"/>
<path d="M33.9297 8.44922C20.1019 8.44922 8.89062 19.6605 8.89062 33.4883C8.89062 47.3161 20.1019 58.5273 33.9297 58.5273C47.7575 58.5273 58.9688 47.3161 58.9688 33.4883C58.9688 19.6605 47.7575 8.44922 33.9297 8.44922ZM30.7998 30.3584C30.7998 29.5283 31.1296 28.7322 31.7165 28.1452C32.3035 27.5583 33.0996 27.2285 33.9297 27.2285C34.7598 27.2285 35.5559 27.5583 36.1428 28.1452C36.7298 28.7322 37.0596 29.5283 37.0596 30.3584V46.0078C37.0596 46.8379 36.7298 47.634 36.1428 48.221C35.5559 48.8079 34.7598 49.1377 33.9297 49.1377C33.0996 49.1377 32.3035 48.8079 31.7165 48.221C31.1296 47.634 30.7998 46.8379 30.7998 46.0078V30.3584ZM33.9297 24.1487C33.5186 24.1486 33.1115 24.0675 32.7317 23.9101C32.3519 23.7527 32.0068 23.522 31.7162 23.2312C31.4256 22.9404 31.195 22.5952 31.0378 22.2154C30.8806 21.8355 30.7997 21.4284 30.7998 21.0173C30.7999 20.6061 30.881 20.1991 31.0384 19.8193C31.1958 19.4395 31.4265 19.0944 31.7173 18.8038C32.0081 18.5131 32.3533 18.2826 32.7331 18.1254C33.113 17.9682 33.5201 17.8873 33.9313 17.8874C34.7616 17.8876 35.5578 18.2176 36.1447 18.8049C36.7317 19.3921 37.0613 20.1885 37.0611 21.0188C37.0609 21.8491 36.7309 22.6453 36.1436 23.2323C35.5564 23.8193 34.76 24.1489 33.9297 24.1487Z" fill="url(#paint1_linear_1_29)"/>
<defs>
<linearGradient id="paint0_linear_1_29" x1="68.5387" y1="66.8525" x2="-12.6758" y2="27.3343" gradientUnits="userSpaceOnUse">
<stop stop-color="#00C4CC"/>
<stop offset="1" stop-color="#7D2AE8"/>
</linearGradient>
<linearGradient id="paint1_linear_1_29" x1="59.9025" y1="58.5273" x2="-1.04609" y2="28.8703" gradientUnits="userSpaceOnUse">
<stop stop-color="#00C4CC"/>
<stop offset="1" stop-color="#7D2AE8"/>
</linearGradient>
</defs>
</svg>
