<svg width="247" height="93" viewBox="0 0 247 93" fill="none" xmlns="http://www.w3.org/2000/svg">
<path d="M6.85571 92.2297H5.89682L5.14178 90.344L4.51007 88.4482L3.88591 90.3617L3.15856 92.2297H2.19966L0 86.2297H1.25839L2.6703 90.5583L4.12499 86.2297H4.86241L6.37248 90.5583L7.74161 86.2297H9L6.85571 92.2297Z" fill="#9D110C"/>
<path d="M14.7064 92.2272V89.802H11.3052V92.2272H10V86.2297H11.3052V88.7507H14.7064V86.2297H16V92.2297L14.7064 92.2272Z" fill="#9D110C"/>
<path d="M22 92.2297H17V86.2297H22V87.3282H18.2493V88.7095H21.868V89.7651H18.2493V91.1211H22V92.2297Z" fill="#9D110C"/>
<path d="M29 92.2297H27.7382L26.0952 90.2163H25.0725V92.2297H24V86.2297C24.8949 86.2297 25.7874 86.2297 26.6823 86.2297C28.0104 86.2297 28.7088 87.1786 28.7088 88.2155C28.7088 89.036 28.3561 89.8665 27.2884 90.098L28.9929 92.1417L29 92.2297ZM25.0725 87.2918V89.2096H26.6918C26.8157 89.2192 26.9402 89.2014 27.0574 89.1576C27.1746 89.1137 27.2821 89.0446 27.3731 88.9547C27.4641 88.8647 27.5367 88.7557 27.5863 88.6346C27.6359 88.5135 27.6615 88.3828 27.6615 88.2507C27.6615 88.1186 27.6359 87.9879 27.5863 87.8668C27.5367 87.7457 27.4641 87.6367 27.3731 87.5467C27.2821 87.4568 27.1746 87.3877 27.0574 87.3438C26.9402 87.3 26.8157 87.2823 26.6918 87.2918H25.0725Z" fill="#9D110C"/>
<path d="M35 92.2297H30V86.2297H35V87.3282H31.2486V88.7095H34.8653V89.7651H31.2486V91.1211H35V92.2297Z" fill="#9D110C"/>
<path d="M43 92.2297H39V86.2297H43V87.3282H40.0006V88.7095H42.8901V89.7651H40.0006V91.1211H43V92.2297Z" fill="#9D110C"/>
<path d="M48.5779 92.2297H47.432L45 86.2297H46.2295L47.9926 90.8894L49.7705 86.2297H51L48.5779 92.2297Z" fill="#9D110C"/>
<path d="M57 92.2297H52V86.2297H57V87.3282H53.2493V88.7095H56.868V89.7651H53.2493V91.1211H57V92.2297Z" fill="#9D110C"/>
<path d="M63.9943 92.2297H62.4758L60.5052 90.2163H59.2768V92.2297H58V86.2297C59.0749 86.2297 60.1469 86.2297 61.2189 86.2297C62.8142 86.2297 63.6559 87.1786 63.6559 88.2155C63.6559 89.036 63.2322 89.8665 61.9498 90.098L64 92.1417L63.9943 92.2297ZM59.2768 87.2918V89.2096H61.2189C61.3678 89.2192 61.5173 89.2014 61.6581 89.1576C61.7989 89.1137 61.928 89.0446 62.0373 88.9547C62.1466 88.8647 62.2338 88.7557 62.2934 88.6346C62.353 88.5135 62.3838 88.3828 62.3838 88.2507C62.3838 88.1186 62.353 87.9879 62.2934 87.8668C62.2338 87.7457 62.1466 87.6367 62.0373 87.5467C61.928 87.4568 61.7989 87.3877 61.6581 87.3438C61.5173 87.3 61.3678 87.2823 61.2189 87.2918H59.2768Z" fill="#9D110C"/>
<path d="M67.4643 88.7054L68.8317 86.2297H70V86.2802L67.9489 89.7516V92.2297H66.9775V89.7516L65 86.2802V86.2297H66.1532L67.4643 88.7054Z" fill="#9D110C"/>
<path d="M78.2207 87.7906C77.8454 87.4288 77.3576 87.2257 76.85 87.2199C75.6946 87.2199 74.9946 88.1502 74.9946 89.3226C74.9946 90.2601 75.5111 91.2407 76.85 91.2407C77.2949 91.2535 77.7284 91.0912 78.0666 90.7851V89.7638H76.6892V88.8047H79V91.2023C78.7386 91.5347 78.4093 91.7999 78.0368 91.9777C77.6643 92.1555 77.2585 92.2412 76.85 92.2285C74.8247 92.2285 74 90.8187 74 89.3178C74 87.7138 74.947 86.2297 76.85 86.2297C77.6003 86.2294 78.3203 86.5431 78.8527 87.1025L78.2207 87.7906Z" fill="#9D110C"/>
<path d="M85.4131 91.0877H82.5686L82.1113 92.2196H81L83.4398 86.2297H84.5579L87 92.2297H85.8796L85.4131 91.0877ZM83.9908 87.4902L82.9825 90.0339H85.0038L83.9908 87.4902Z" fill="#9D110C"/>
<path d="M93.7523 87.8734L91.5987 90.4801H91.3541L89.2449 87.8659V92.2272H88V86.2297H89.4339L91.5042 88.8112L93.5717 86.2297H95V92.2297H93.7523V87.8734Z" fill="#9D110C"/>
<path d="M101 92.2297H97V86.2297H101V87.3282H97.9994V88.7095H100.892V89.7651H97.9994V91.1211H101V92.2297Z" fill="#9D110C"/>
<path d="M105 92.2171V86.2297H109V87.3183H106.05V88.9538H108.841V90.0097H106.05V92.2297L105 92.2171Z" fill="#9D110C"/>
<path d="M115 92.2297H111V86.2297H115V87.3282H112.001V88.7095H114.892V89.7651H112.001V91.1211H115V92.2297Z" fill="#9D110C"/>
<path d="M122 92.2297H117V86.2297H122V87.3282H118.249V88.7095H121.865V89.7651H118.249V91.1211H122V92.2297Z" fill="#9D110C"/>
<path d="M124.074 86.2297V91.1835H127V92.2297H123V86.2297H124.074Z" fill="#9D110C"/>
<path d="M132.94 87.7898C132.777 87.5856 132.567 87.4219 132.326 87.3123C132.085 87.2026 131.821 87.1503 131.555 87.1596C130.738 87.1596 130.345 87.4925 130.345 87.9111C130.345 88.4057 130.946 88.5436 131.646 88.6245C132.873 88.7696 134 89.0764 134 90.4271C134 91.6875 132.849 92.2297 131.545 92.2297C130.35 92.2297 129.432 91.873 129 90.8385L129.918 90.3772C130.164 91.0002 130.851 91.2761 131.56 91.2761C132.27 91.2761 132.905 91.0383 132.905 90.4271C132.905 89.8921 132.328 89.6756 131.553 89.5948C130.36 89.4569 129.258 89.1501 129.258 87.8801C129.258 86.7149 130.443 86.2392 131.518 86.2297C132.429 86.2297 133.372 86.4818 133.813 87.3546L132.94 87.7898Z" fill="#9D110C"/>
<path d="M139.072 86.2297V91.1835H142V92.2297H138V86.2297H139.072Z" fill="#9D110C"/>
<path d="M144 92.2196V86.2297H145V92.2297L144 92.2196Z" fill="#9D110C"/>
<path d="M151.777 86.2675L149.129 89.1378L152 92.1617V92.2297H150.612L148.107 89.5737V92.2297H147V86.2449H148.122V88.7648L150.377 86.2297H151.772L151.777 86.2675Z" fill="#9D110C"/>
<path d="M158 92.2297H153V86.2297H158V87.3282H154.244V88.7095H157.862V89.7651H154.244V91.1211H157.994L158 92.2297Z" fill="#9D110C"/>
<path d="M163.542 87.2415H162V86.2297H166V87.2415H164.458V92.2297H163.542V87.2415Z" fill="#9D110C"/>
<path d="M171.92 92.2272V89.802H169.088V92.2272H168V86.2297H169.088V88.7507H171.92V86.2297H173V92.2297L171.92 92.2272Z" fill="#9D110C"/>
<path d="M179 92.2297H175V86.2297H178.991V87.3282H176.008V88.7095H178.893V89.7651H176.008V91.1211H179V92.2297Z" fill="#9D110C"/>
<path d="M188.824 87.9628C188.828 88.2129 188.756 88.4581 188.619 88.6654C188.481 88.8726 188.285 89.0321 188.056 89.1224C188.327 89.2232 188.562 89.4048 188.73 89.6436C188.899 89.8824 188.993 90.1673 189 90.4613C189 91.8028 188.009 92.2297 186.793 92.2297H184V86.2297H186.793C187.957 86.2297 188.824 86.7527 188.824 87.9628ZM185.095 88.6323H186.793C187.494 88.6323 187.72 88.3316 187.72 87.988C187.72 87.7127 187.502 87.2504 186.793 87.2504H185.095V88.6323ZM185.095 91.1763H186.793C187.249 91.1763 187.898 91.0196 187.898 90.4537C187.898 89.8878 187.249 89.6301 186.793 89.6301H185.095V91.1763Z" fill="#9D110C"/>
<path d="M190 92.2196V86.2297H191V92.2297L190 92.2196Z" fill="#9D110C"/>
<path d="M198.068 87.7906C197.617 87.4283 197.03 87.2251 196.42 87.2199C195.034 87.2199 194.193 88.1502 194.193 89.3226C194.193 90.26 194.813 91.2406 196.42 91.2406C196.954 91.2525 197.475 91.0903 197.883 90.7851V89.7637H196.227V88.8047H199V91.2023C198.687 91.535 198.291 91.8003 197.844 91.9781C197.397 92.1559 196.91 92.2415 196.42 92.2284C193.99 92.2284 193 90.8187 193 89.3178C193 87.7138 194.139 86.2297 196.42 86.2297C197.32 86.2291 198.184 86.5429 198.823 87.1025L198.068 87.7906Z" fill="#9D110C"/>
<path d="M204.072 86.2297V91.1835H207V92.2297H203V86.2297H204.072Z" fill="#9D110C"/>
<path d="M213 92.2297H209V86.2297H213V87.3282H209.999V88.7095H212.894V89.7651H209.999V91.1211H213V92.2297Z" fill="#9D110C"/>
<path d="M219.149 91.0978H215.829L215.296 92.2297H214L216.848 86.2297H218.152L221 92.2297H219.683L219.149 91.0978ZM217.491 87.4902L216.312 90.044H218.667L217.491 87.4902Z" fill="#9D110C"/>
<path d="M226.223 87.7905C225.847 87.4288 225.359 87.2257 224.851 87.2199C223.695 87.2199 222.993 88.1502 222.993 89.3226C222.993 90.26 223.51 91.2406 224.851 91.2406C225.296 91.2535 225.73 91.0912 226.068 90.7851V89.7637H224.688V88.8047H227V91.2023C226.739 91.5349 226.41 91.8002 226.038 91.9781C225.665 92.1559 225.26 92.2415 224.851 92.2284C222.825 92.2284 222 90.8187 222 89.3178C222 87.7138 222.947 86.2297 224.851 86.2297C225.602 86.2299 226.322 86.5435 226.855 87.1025L226.223 87.7905Z" fill="#9D110C"/>
<path d="M234 86.2297V89.6004C234 91.3302 232.966 92.2297 231.534 92.2297C230.166 92.2297 229 91.3722 229 89.6004V86.2297H230.068V89.6004C230.068 90.6581 230.655 91.2215 231.541 91.2215C232.427 91.2215 232.934 90.6086 232.934 89.6004V86.2297H234Z" fill="#9D110C"/>
<path d="M240 92.2297H236V86.2297H240V87.3282H236.999V88.7095H239.892V89.7651H236.999V91.1211H240V92.2297Z" fill="#9D110C"/>
<path d="M245.94 87.7898C245.777 87.5855 245.566 87.4219 245.325 87.3123C245.084 87.2027 244.819 87.1503 244.553 87.1596C243.735 87.1596 243.343 87.4925 243.343 87.9111C243.343 88.4057 243.944 88.5436 244.646 88.6245C245.873 88.7696 247 89.0764 247 90.4271C247 91.6875 245.846 92.2297 244.545 92.2297C243.352 92.2297 242.434 91.873 242 90.8385L242.918 90.3772C243.178 91.0002 243.853 91.2761 244.563 91.2761C245.272 91.2761 245.905 91.0383 245.905 90.4271C245.905 89.8921 245.331 89.6756 244.553 89.5948C243.36 89.4569 242.26 89.1501 242.26 87.8801C242.26 86.7149 243.443 86.2392 244.521 86.2297C245.429 86.2297 246.374 86.4818 246.816 87.3546L245.94 87.7898Z" fill="#9D110C"/>
<path d="M144.833 33.4973H140.677V20.8351L132.17 30.586H128.948L120.439 20.8351V33.5044H116.297V13.5747H119.976L130.562 26.0008L141.135 13.5747H144.83L144.833 33.4973Z" fill="#9D110C"/>
<path d="M167.795 33.4973H151.701C150.796 33.5069 149.905 33.2687 149.127 32.8085C148.359 32.3589 147.719 31.7202 147.27 30.9535C146.818 30.1745 146.58 29.2907 146.58 28.3911C146.58 27.4914 146.818 26.6076 147.27 25.8286C147.72 25.0648 148.358 24.4285 149.125 23.9807C149.904 23.5218 150.794 23.2842 151.699 23.2937H163.651V22.9174C163.652 22.7099 163.611 22.5043 163.531 22.3127C163.451 22.121 163.334 21.9471 163.186 21.8011C163.038 21.655 162.863 21.5398 162.669 21.462C162.476 21.3842 162.27 21.3455 162.061 21.3481H147.792V17.2298H162.061C163.074 17.2188 164.07 17.4853 164.942 18.0002C165.802 18.5003 166.52 19.2101 167.029 20.0629C167.546 20.9276 167.815 21.9177 167.804 22.9245L167.795 33.4973ZM163.651 29.3701V27.4174H151.701C151.572 27.4138 151.444 27.4359 151.324 27.4822C151.204 27.5285 151.095 27.5982 151.002 27.6872C150.862 27.8237 150.766 27.9988 150.727 28.1899C150.688 28.3811 150.707 28.5795 150.783 28.7597C150.858 28.9398 150.985 29.0934 151.149 29.2006C151.313 29.3078 151.505 29.3638 151.701 29.3612L163.651 29.3701Z" fill="#9D110C"/>
<path d="M191.368 33.4973H185.509L179.416 27.4263H174.309V33.4973H170.167V13.5747H174.309V23.3008H179.416L185.509 17.2298H191.368L183.194 25.3564L191.368 33.4973Z" fill="#9D110C"/>
<path d="M211.148 33.4973H197.15C196.137 33.5073 195.14 33.2402 194.269 32.7251C193.411 32.2226 192.696 31.5102 192.191 30.6553C191.675 29.7874 191.408 28.7953 191.418 27.7866V22.328C191.41 21.411 191.679 20.5128 192.191 19.7505C192.717 18.9695 193.435 18.3358 194.277 17.9097C195.174 17.4511 196.17 17.2177 197.178 17.2298H206.257C207.268 17.2162 208.267 17.4497 209.166 17.9097C210.004 18.3353 210.719 18.9663 211.244 19.7434C211.76 20.5068 212.03 21.4081 212.02 22.328V27.4263H195.56V27.7813C195.557 27.99 195.597 28.197 195.676 28.3903C195.754 28.5836 195.871 28.7592 196.02 28.9068C196.168 29.0544 196.344 29.1709 196.538 29.2496C196.732 29.3282 196.94 29.3674 197.15 29.3647H211.153L211.148 33.4973ZM207.87 23.3008V22.328C207.87 22.1233 207.727 21.9103 207.439 21.689C207.092 21.4492 206.674 21.3318 206.252 21.3552H197.173C196.751 21.3315 196.334 21.449 195.988 21.689C195.699 21.9115 195.555 22.1245 195.555 22.328V23.3008H207.87Z" fill="#9D110C"/>
<path d="M120.266 59.5494H116.297V40.4576H135.225C136.196 40.4474 137.151 40.7029 137.986 41.1961C138.808 41.6777 139.493 42.3601 139.977 43.1789C140.472 44.0106 140.728 44.9618 140.718 45.9287V49.4151C140.73 50.3844 140.474 51.3384 139.977 52.1719C139.492 52.9879 138.807 53.6678 137.986 54.1476C137.151 54.6414 136.196 54.8975 135.225 54.8879H120.266V59.5494ZM135.225 50.9346C135.426 50.937 135.625 50.8994 135.811 50.8239C135.997 50.7485 136.166 50.6368 136.308 50.4954C136.45 50.354 136.562 50.1857 136.638 50.0005C136.713 49.8153 136.751 49.6168 136.749 49.4169V45.9287C136.752 45.7304 136.715 45.5336 136.639 45.3504C136.563 45.1672 136.45 45.0015 136.307 44.8636C136.165 44.7227 135.996 44.6119 135.81 44.5377C135.624 44.4636 135.425 44.4277 135.225 44.4322H120.266V50.9417L135.225 50.9346Z" fill="#9D110C"/>
<path d="M146.388 59.5495H142.418V40.4577H146.388V59.5495Z" fill="#9D110C"/>
<path d="M168.38 59.5495H152.948C152.081 59.5584 151.228 59.33 150.482 58.8891C149.745 58.4591 149.131 57.8479 148.699 57.114C148.266 56.3671 148.038 55.5197 148.038 54.6572C148.038 53.7946 148.266 52.9473 148.699 52.2003C149.131 51.4665 149.745 50.8553 150.482 50.4252C151.228 49.9861 152.081 49.7596 152.948 49.7702H164.403V49.4151C164.407 49.2171 164.37 49.0204 164.294 48.8372C164.218 48.654 164.106 48.4882 163.963 48.35C163.822 48.2072 163.653 48.0946 163.467 48.0192C163.28 47.9438 163.08 47.9072 162.879 47.9116H149.205V43.9565H162.879C163.85 43.9471 164.805 44.2025 165.64 44.695C166.461 45.1761 167.146 45.8564 167.631 46.6725C168.127 47.5012 168.385 48.4502 168.374 49.4151L168.38 59.5495ZM164.409 55.5945V53.7306H152.948C152.825 53.7272 152.703 53.7483 152.588 53.7929C152.473 53.8374 152.368 53.9043 152.28 53.9897C152.148 54.1208 152.058 54.2879 152.022 54.4699C151.986 54.6518 152.005 54.8404 152.076 55.0117C152.148 55.1829 152.269 55.3291 152.424 55.4316C152.58 55.5341 152.762 55.5883 152.948 55.5874L164.409 55.5945Z" fill="#9D110C"/>
<path d="M184.542 63.4389H170.283V59.4838H184.542C185.245 59.4838 185.708 59.0578 185.932 58.2057C185.478 58.3226 185.011 58.3822 184.542 58.3832H175.787C174.816 58.3933 173.861 58.1372 173.026 57.643C172.205 57.1631 171.519 56.4833 171.033 55.6672C170.537 54.8334 170.281 53.8797 170.292 52.9104V43.9512H174.263V52.9104C174.26 53.1105 174.298 53.309 174.374 53.4943C174.449 53.6797 174.561 53.848 174.703 53.9895C174.845 54.1309 175.014 54.2426 175.201 54.318C175.387 54.3933 175.586 54.4308 175.787 54.4282H184.542C184.742 54.4308 184.942 54.3933 185.128 54.318C185.314 54.2426 185.483 54.1309 185.625 53.9895C185.767 53.848 185.879 53.6797 185.955 53.4943C186.03 53.309 186.068 53.1105 186.065 52.9104V43.9512H190.036V57.5702C190.056 58.6267 189.8 59.6703 189.293 60.5986C188.826 61.4542 188.142 62.1728 187.31 62.6827C186.476 63.1887 185.517 63.4508 184.542 63.4389Z" fill="#9D110C"/>
<path d="M206.519 59.5495H191.682V55.5945H206.519C206.917 55.6169 207.31 55.5042 207.635 55.2749C207.908 55.0619 208.043 54.8578 208.043 54.6625C208.043 54.4672 207.908 54.2631 207.635 54.0501C207.31 53.8207 206.917 53.7081 206.519 53.7305H197.176C196.213 53.743 195.262 53.5167 194.409 53.0719C193.609 52.658 192.927 52.0514 192.423 51.3075C191.939 50.575 191.682 49.7175 191.682 48.8409C191.682 47.9642 191.939 47.1068 192.423 46.3743C192.924 45.6287 193.607 45.0221 194.409 44.6116C195.263 44.1702 196.214 43.9458 197.176 43.9583H212.014V47.9133H197.176C196.778 47.8909 196.384 48.0036 196.059 48.2329C195.788 48.4459 195.653 48.65 195.653 48.8453C195.653 49.0406 195.788 49.2447 196.059 49.4577C196.384 49.6871 196.778 49.7997 197.176 49.7773H206.519C207.482 49.7642 208.433 49.9879 209.287 50.4287C210.089 50.839 210.771 51.4464 211.271 52.1933C211.756 52.9263 212.014 53.7848 212.014 54.6625C212.014 55.5402 211.756 56.3987 211.271 57.1317C210.771 57.8786 210.089 58.486 209.287 58.8962C208.433 59.3376 207.482 59.562 206.519 59.5495Z" fill="#9D110C"/>
<path d="M73.6798 1.03323C72.5038 0.356368 71.1695 0 69.8113 0C68.4531 0 67.1188 0.356368 65.9428 1.03323L39.1617 16.4309C37.9855 17.1075 37.0087 18.0805 36.3295 19.2521C35.6503 20.4237 35.2926 21.7526 35.2923 23.1055V28.8535H38.3793V23.1055C38.3785 22.2932 38.5921 21.4949 38.9988 20.7908C39.4055 20.0867 39.9909 19.5014 40.6963 19.0937L67.4863 3.69596C68.1932 3.28947 68.995 3.07547 69.8113 3.07547C70.6276 3.07547 71.4294 3.28947 72.1363 3.69596L98.9174 19.0954C99.6227 19.5033 100.208 20.0886 100.615 20.7927C101.021 21.4968 101.235 22.295 101.234 23.1073V53.9063C101.235 54.7185 101.021 55.5167 100.615 56.2208C100.208 56.9249 99.6227 57.5103 98.9174 57.9181L72.1363 73.3194C71.4293 73.7253 70.6275 73.939 69.8113 73.939C68.9952 73.939 68.1934 73.7253 67.4863 73.3194L40.7034 57.9181C39.998 57.5104 39.4126 56.9251 39.0059 56.221C38.5993 55.5168 38.3856 54.7186 38.3864 53.9063V48.1956H35.2923V53.9063C35.292 55.259 35.6495 56.588 36.3287 57.7594C37.008 58.9308 37.9851 59.9033 39.1617 60.5791L65.9428 75.9803C67.1188 76.6572 68.4531 77.0135 69.8113 77.0135C71.1695 77.0135 72.5038 76.6572 73.6798 75.9803L100.461 60.5791C101.637 59.9032 102.614 58.9306 103.293 57.7592C103.972 56.5878 104.329 55.2589 104.329 53.9063V23.1055C104.329 21.7528 103.971 20.4239 103.292 19.2522C102.613 18.0806 101.637 17.1076 100.461 16.4309L73.6798 1.03323Z" fill="#9D110C"/>
<path d="M69.6251 61.8234C70.0343 61.823 70.4266 61.6608 70.716 61.3727C71.0053 61.0845 71.1681 60.6937 71.1686 60.2861V16.7256C71.1686 16.3179 71.0059 15.9269 70.7165 15.6386C70.427 15.3503 70.0344 15.1883 69.6251 15.1883C69.2157 15.1883 68.8231 15.3503 68.5337 15.6386C68.2442 15.9269 68.0816 16.3179 68.0816 16.7256V60.2861C68.0816 60.6939 68.2442 61.0849 68.5337 61.3732C68.8231 61.6615 69.2157 61.8234 69.6251 61.8234Z" fill="#9D110C"/>
<path d="M61.5976 56.0861C62.0069 56.0861 62.3995 55.9242 62.689 55.6359C62.9784 55.3476 63.141 54.9566 63.141 54.5489V22.7434C63.141 22.3357 62.9784 21.9447 62.689 21.6564C62.3995 21.3681 62.0069 21.2061 61.5976 21.2061C61.1882 21.2061 60.7956 21.3681 60.5062 21.6564C60.2167 21.9447 60.0541 22.3357 60.0541 22.7434V54.5489C60.0541 54.9566 60.2167 55.3476 60.5062 55.6359C60.7956 55.9242 61.1882 56.0861 61.5976 56.0861Z" fill="#9D110C"/>
<path d="M53.7001 50.2494C54.1093 50.2489 54.5017 50.0868 54.791 49.7986C55.0804 49.5104 55.2431 49.1197 55.2436 48.7121V28.2978C55.2436 27.8901 55.081 27.4991 54.7915 27.2108C54.5021 26.9225 54.1095 26.7605 53.7001 26.7605C53.2908 26.7605 52.8982 26.9225 52.6087 27.2108C52.3193 27.4991 52.1566 27.8901 52.1566 28.2978V48.7121C52.1566 48.914 52.1966 49.1139 52.2741 49.3004C52.3517 49.4869 52.4654 49.6564 52.6087 49.7992C52.752 49.9419 52.9222 50.0551 53.1095 50.1324C53.2967 50.2096 53.4974 50.2494 53.7001 50.2494Z" fill="#9D110C"/>
<path d="M45.8009 45.3322C46.2101 45.3317 46.6024 45.1696 46.8918 44.8814C47.1811 44.5932 47.3439 44.2025 47.3444 43.7949V33.2114C47.3444 32.8037 47.1818 32.4127 46.8923 32.1244C46.6029 31.8361 46.2103 31.6742 45.8009 31.6742C45.3915 31.6742 44.999 31.8361 44.7095 32.1244C44.42 32.4127 44.2574 32.8037 44.2574 33.2114V43.8003C44.2579 44.2078 44.4207 44.5986 44.71 44.8868C44.9994 45.175 45.3917 45.3371 45.8009 45.3375V45.3322Z" fill="#9D110C"/>
<path d="M77.2676 56.0861C77.677 56.0861 78.0696 55.9242 78.359 55.6359C78.6485 55.3476 78.8111 54.9566 78.8111 54.5489V22.7434C78.8111 22.3357 78.6485 21.9447 78.359 21.6564C78.0696 21.3681 77.677 21.2061 77.2676 21.2061C76.8583 21.2061 76.4657 21.3681 76.1762 21.6564C75.8868 21.9447 75.7242 22.3357 75.7242 22.7434V54.5489C75.7242 54.9566 75.8868 55.3476 76.1762 55.6359C76.4657 55.9242 76.8583 56.0861 77.2676 56.0861Z" fill="#9D110C"/>
<path d="M85.1668 50.2494C85.5761 50.2489 85.9684 50.0868 86.2577 49.7986C86.5471 49.5104 86.7099 49.1197 86.7103 48.7121V28.2978C86.7103 27.8901 86.5477 27.4991 86.2582 27.2108C85.9688 26.9225 85.5762 26.7605 85.1668 26.7605C84.7575 26.7605 84.3649 26.9225 84.0754 27.2108C83.786 27.4991 83.6234 27.8901 83.6234 28.2978V48.7121C83.6238 49.1197 83.7866 49.5104 84.076 49.7986C84.3653 50.0868 84.7576 50.2489 85.1668 50.2494Z" fill="#9D110C"/>
<path d="M93.0626 45.3323C93.4719 45.3323 93.8645 45.1703 94.154 44.882C94.4434 44.5937 94.606 44.2027 94.606 43.795V33.2115C94.6131 33.0053 94.5784 32.7999 94.504 32.6074C94.4297 32.4148 94.3172 32.2392 94.1732 32.0909C94.0293 31.9426 93.8569 31.8246 93.6662 31.7441C93.4755 31.6635 93.2706 31.622 93.0634 31.622C92.8563 31.622 92.6513 31.6635 92.4607 31.7441C92.27 31.8246 92.0976 31.9426 91.9537 32.0909C91.8097 32.2392 91.6972 32.4148 91.6229 32.6074C91.5485 32.7999 91.5138 33.0053 91.5208 33.2115V43.8003C91.5223 44.2068 91.6853 44.5962 91.9742 44.8833C92.2631 45.1704 92.6544 45.3318 93.0626 45.3323Z" fill="#9D110C"/>
<path d="M38.8106 32.0914H26.3327V35.1659H38.8106V32.0914Z" fill="#9D110C"/>
<path d="M38.8107 41.8458H23.5737V44.9204H38.8107V41.8458Z" fill="#9D110C"/>
<path d="M22.4062 32.0914H19.0252V35.1659H22.4062V32.0914Z" fill="#9D110C"/>
</svg>
