<svg xmlns="http://www.w3.org/2000/svg" width="24" height="24" viewBox="0 0 24 24">
  <g id="Group_36887" data-name="Group 36887" transform="translate(-12313 -9799)">
    <g id="d4da2386bb832d9d5cf887612ba63145" transform="translate(12314.162 9800.162)">
      <path id="Path_2227" data-name="Path 2227" d="M11.691,22.006H10.316a2.063,2.063,0,0,1-2.063-2.063.688.688,0,0,0-.44-.619,2.921,2.921,0,0,1-.454-.165.688.688,0,0,0-.75.1,2.063,2.063,0,0,1-2.881,0l-.977-.977a2.063,2.063,0,0,1,0-2.881.688.688,0,0,0,.124-.75,2.588,2.588,0,0,1-.213-.454.688.688,0,0,0-.6-.44A2.063,2.063,0,0,1,0,11.691V10.316A2.063,2.063,0,0,1,2.063,8.252a.688.688,0,0,0,.619-.44,2.921,2.921,0,0,1,.165-.454.688.688,0,0,0-.1-.75,2.063,2.063,0,0,1,0-2.881l.977-.977a2.063,2.063,0,0,1,2.881,0,.688.688,0,0,0,.75.124l.454-.186a.688.688,0,0,0,.44-.626A2.063,2.063,0,0,1,10.316,0h1.375a2.063,2.063,0,0,1,2.063,2.063.688.688,0,0,0,.44.619l.454.186a.688.688,0,0,0,.75-.117,2.063,2.063,0,0,1,2.881,0l.977.977a2.063,2.063,0,0,1,0,2.881.688.688,0,0,0-.124.75q.1.227.186.454a.688.688,0,0,0,.626.44,2.063,2.063,0,0,1,2.063,2.063v1.375a2.063,2.063,0,0,1-2.063,2.063.688.688,0,0,0-.619.44q-.083.227-.186.454a.688.688,0,0,0,.131.75,2.063,2.063,0,0,1,0,2.881l-.99.977a.686.686,0,1,1-.97-.97l1-1a.688.688,0,0,0,0-.942,2.063,2.063,0,0,1-.413-2.283c.062-.124.11-.254.165-.385a2.015,2.015,0,0,1,1.877-1.293.688.688,0,0,0,.688-.688V10.316a.688.688,0,0,0-.688-.688,2.063,2.063,0,0,1-1.9-1.32,3.769,3.769,0,0,0-.158-.385,2.063,2.063,0,0,1,.413-2.283.688.688,0,0,0,0-.942l-.983-1a.688.688,0,0,0-.942,0,2.063,2.063,0,0,1-2.283.413,3.768,3.768,0,0,0-.385-.158,2.063,2.063,0,0,1-1.32-1.884.688.688,0,0,0-.688-.688H10.316a.688.688,0,0,0-.688.688,2.063,2.063,0,0,1-1.32,1.9,3.769,3.769,0,0,0-.385.158,2.063,2.063,0,0,1-2.283-.413.688.688,0,0,0-.942,0l-1,.983a.688.688,0,0,0,0,.942,2.063,2.063,0,0,1,.433,2.283c-.062.124-.11.254-.165.385a2.015,2.015,0,0,1-1.9,1.32.688.688,0,0,0-.688.688v1.375a.688.688,0,0,0,.688.688,2.063,2.063,0,0,1,1.9,1.32,3.769,3.769,0,0,0,.158.385,2.063,2.063,0,0,1-.413,2.283.688.688,0,0,0,0,.942l1,1a.688.688,0,0,0,.942,0A2.063,2.063,0,0,1,7.943,17.9a3.769,3.769,0,0,0,.385.158,2.063,2.063,0,0,1,1.3,1.884.688.688,0,0,0,.688.688h1.375a.688.688,0,0,0,.688-.688,2.063,2.063,0,0,1,1.32-1.9,3.768,3.768,0,0,0,.385-.158.69.69,0,0,1,.564,1.258q-.227.1-.454.186a.688.688,0,0,0-.44.619A2.063,2.063,0,0,1,11.691,22.006Z" fill="#fff"/>
      <path id="Path_2228" data-name="Path 2228" d="M19,16.021V10.437a.811.811,0,0,0-.069-.3c-.138-.289.076-.1-5.089-3.053a.688.688,0,0,0-.688,0C7.89,10.1,8.172,9.839,8.048,10.2,8,10.389,8,9.908,8,15.939a1.864,1.864,0,0,0,.048.22,1.018,1.018,0,0,0,.124.227l.172.151c5.158,2.936,4.91,2.84,5.158,2.84s0,.11,5.158-2.84l.172-.151A.6.6,0,0,0,19,16.021Zm-9.628-4.4,3.439,1.967v3.92L9.375,15.54Zm4.814,1.967,3.439-1.967v3.92l-3.439,1.967ZM13.5,8.477l3.439,1.96L13.5,12.4l-3.439-1.96Z" transform="translate(-2.498 -2.185)" fill="#fff"/>
    </g>
    <rect id="Rectangle_789" data-name="Rectangle 789" width="24" height="24" transform="translate(12313 9799)" fill="none"/>
  </g>
</svg>
