<svg xmlns="http://www.w3.org/2000/svg" width="24" height="24" viewBox="0 0 24 24">
  <g id="Group_60692" data-name="Group 60692" transform="translate(-86 -11279)">
    <rect id="Rectangle_1309" data-name="Rectangle 1309" width="24" height="24" transform="translate(86 11279)" fill="none"/>
    <path id="c500837274e7c658be8672868b388b5b" d="M10.6,17.194H8.534a.344.344,0,0,0-.344.344V19.6a.344.344,0,0,0,.344.344H10.6a.344.344,0,0,0,.344-.344V17.538A.344.344,0,0,0,10.6,17.194Zm-.344,2.063H8.878V17.882h1.376Zm6.878.449a.344.344,0,0,0,.286.189h.021a.344.344,0,0,0,.286-.153L19.1,17.679a.344.344,0,1,0-.572-.382l-1.047,1.57-.419-.844a.344.344,0,1,0-.616.307Zm-.344-3.888h2.06a.344.344,0,0,0,.344-.344V13.412a.344.344,0,0,0-.344-.344H16.787a.344.344,0,0,0-.344.344v2.063a.344.344,0,0,0,.344.344Zm.344-2.063H18.51v1.376H17.131Zm-.344-2.063h2.06a.344.344,0,0,0,.344-.344V9.285a.344.344,0,0,0-.344-.344H16.787a.344.344,0,0,0-.344.344v2.063a.344.344,0,0,0,.344.344Zm.344-2.063H18.51V11H17.131ZM4.407,15.819H6.471a.344.344,0,0,0,.344-.344V13.412a.344.344,0,0,0-.344-.344H4.407a.344.344,0,0,0-.344.344v2.063a.344.344,0,0,0,.344.344Zm.344-2.063H6.127v1.376H4.751Zm-.344,6.19H6.471a.344.344,0,0,0,.344-.344V17.538a.344.344,0,0,0-.344-.344H4.407a.344.344,0,0,0-.344.344V19.6a.344.344,0,0,0,.344.345Zm.344-2.063H6.127v1.376H4.751Zm-.344-6.19H6.471a.344.344,0,0,0,.344-.344V9.285a.344.344,0,0,0-.344-.344H4.407a.344.344,0,0,0-.344.344v2.063a.344.344,0,0,0,.344.344ZM4.751,9.63H6.127V11H4.751ZM19.538,2.751h-.344V1.376a1.376,1.376,0,0,0-2.751,0V2.751H6.814V1.376a1.376,1.376,0,0,0-2.751,0V2.751H3.719A1.719,1.719,0,0,0,2,4.471V20.289a1.719,1.719,0,0,0,1.719,1.719H19.538a1.719,1.719,0,0,0,1.719-1.719V4.471a1.719,1.719,0,0,0-1.719-1.719ZM17.131,1.376a.688.688,0,1,1,1.376,0V4.127a.688.688,0,1,1-1.376,0Zm-12.38,0a.688.688,0,1,1,1.376,0V4.127a.688.688,0,0,1-1.376,0ZM20.57,20.289a1.032,1.032,0,0,1-1.032,1.032H3.719a1.032,1.032,0,0,1-1.032-1.032V7.566H20.57Zm0-13.412H2.688V4.471A1.032,1.032,0,0,1,3.719,3.439h.344v.688a1.376,1.376,0,1,0,2.751,0V3.439h9.629v.688a1.376,1.376,0,0,0,2.751,0V3.439h.344A1.032,1.032,0,0,1,20.57,4.471ZM8.878,11.454a.344.344,0,0,0,.286.189h.021a.344.344,0,0,0,.286-.153l1.376-2.063a.344.344,0,1,0-.572-.382l-1.047,1.57-.419-.844a.344.344,0,1,0-.616.307Zm3.783.239h2.063a.344.344,0,0,0,.344-.344V9.285a.344.344,0,0,0-.344-.344H12.661a.344.344,0,0,0-.344.344v2.063a.344.344,0,0,0,.344.344ZM13,9.629h1.38V11H13Zm-.344,10.317h2.063a.344.344,0,0,0,.344-.344V17.538a.344.344,0,0,0-.344-.344H12.661a.344.344,0,0,0-.344.344V19.6a.344.344,0,0,0,.344.345ZM13,17.882h1.38v1.376H13Zm-.344-2.063h2.063a.344.344,0,0,0,.344-.344V13.412a.344.344,0,0,0-.344-.344H12.661a.344.344,0,0,0-.344.344v2.063a.344.344,0,0,0,.344.344ZM13,13.755h1.38v1.376H13Zm-2.4-.687H8.534a.344.344,0,0,0-.344.344v2.063a.344.344,0,0,0,.344.344H10.6a.344.344,0,0,0,.344-.344V13.412a.344.344,0,0,0-.344-.344Zm-.344,2.063H8.878V13.755h1.376Z" transform="translate(86.371 11279.995)" fill="#fff" stroke="#fff" stroke-width="0.3"/>
  </g>
</svg>
