<svg xmlns="http://www.w3.org/2000/svg" width="24" height="24" viewBox="0 0 24 24">
  <g id="Group_36790" data-name="Group 36790" transform="translate(-1179 -3235)">
    <g id="Iconly_Light-Outline_Setting" data-name="Iconly/Light-Outline/Setting" transform="translate(1178.104 3234.037)">
      <g id="Setting" transform="translate(2 2)">
        <path id="Combined-Shape" d="M11.221,1a2.907,2.907,0,0,1,2.91,2.993,1.167,1.167,0,0,0,.165.557A1.26,1.26,0,0,0,16.027,5,2.919,2.919,0,0,1,20,6.073l.681,1.179a.93.93,0,0,1,.046.094,2.921,2.921,0,0,1-1.1,3.874,1.248,1.248,0,0,0-.463.46,1.283,1.283,0,0,0-.131.965,1.248,1.248,0,0,0,.59.768,2.9,2.9,0,0,1,1.06,3.975L19.958,18.6a2.912,2.912,0,0,1-3.964,1.048,1.3,1.3,0,0,0-.61-.169h-.007a1.265,1.265,0,0,0-.877.369,1.25,1.25,0,0,0-.368.9,2.918,2.918,0,0,1-2.912,2.9H9.852a2.914,2.914,0,0,1-2.912-2.91,1.176,1.176,0,0,0-.165-.581,1.251,1.251,0,0,0-1.722-.471,2.911,2.911,0,0,1-3.981-1.12L.388,17.387a2.9,2.9,0,0,1,1.06-3.962,1.271,1.271,0,0,0,0-2.2A2.916,2.916,0,0,1,.387,7.252l.741-1.216A2.908,2.908,0,0,1,5.087,4.98a1.2,1.2,0,0,0,.6.172A1.275,1.275,0,0,0,6.951,3.9,2.9,2.9,0,0,1,9.852,1Zm0,1.639H9.852A1.258,1.258,0,0,0,8.591,3.907,2.926,2.926,0,0,1,5.68,6.791a2.82,2.82,0,0,1-1.42-.4,1.273,1.273,0,0,0-1.722.477L1.8,8.088A1.269,1.269,0,0,0,2.27,9.8a2.911,2.911,0,0,1,0,5.041,1.263,1.263,0,0,0-.46,1.721l.69,1.189a1.274,1.274,0,0,0,1.742.507,2.9,2.9,0,0,1,2.191-.29,2.916,2.916,0,0,1,1.761,1.356,2.8,2.8,0,0,1,.388,1.4,1.274,1.274,0,0,0,1.272,1.28h1.369a1.273,1.273,0,0,0,1.272-1.265,2.9,2.9,0,0,1,2.915-2.906,2.976,2.976,0,0,1,1.4.387,1.279,1.279,0,0,0,1.738-.46l.726-1.21a1.263,1.263,0,0,0-.466-1.718,2.882,2.882,0,0,1-1.357-1.768,2.919,2.919,0,0,1,.3-2.207A2.884,2.884,0,0,1,18.807,9.8a1.274,1.274,0,0,0,.456-1.725A.61.61,0,0,1,19.225,8l-.64-1.11a1.273,1.273,0,0,0-1.733-.469,2.9,2.9,0,0,1-3.965-1.038,2.791,2.791,0,0,1-.392-1.405,1.3,1.3,0,0,0-.36-.955A1.276,1.276,0,0,0,11.221,2.64Zm-.68,5.983a3.7,3.7,0,1,1-3.7,3.7A3.706,3.706,0,0,1,10.541,8.623Zm0,1.639A2.061,2.061,0,1,0,12.6,12.324,2.064,2.064,0,0,0,10.541,10.262Z" transform="translate(0 -1)" fill="#fff" fill-rule="evenodd"/>
      </g>
    </g>
    <rect id="Rectangle_1116" data-name="Rectangle 1116" width="24" height="24" transform="translate(1179 3235)" fill="none"/>
  </g>
</svg>
