<svg width="67" height="67" viewBox="0 0 67 67" fill="none" xmlns="http://www.w3.org/2000/svg">
<circle cx="33.4614" cy="33.4878" r="33.3647" fill="#00C22A" fill-opacity="0.2"/>
<path d="M33.4614 8.48828C28.5169 8.48828 23.6834 9.95451 19.5722 12.7015C15.461 15.4486 12.2566 19.353 10.3644 23.9212C8.47226 28.4893 7.97717 33.516 8.9418 38.3655C9.90644 43.2151 12.2875 47.6696 15.7838 51.1659C19.2801 54.6623 23.7346 57.0433 28.5842 58.0079C33.4337 58.9725 38.4604 58.4774 43.0285 56.5853C47.5967 54.6931 51.5011 51.4888 54.2482 47.3775C56.9952 43.2663 58.4614 38.4328 58.4614 33.4883C58.4463 26.8625 55.8076 20.5124 51.1224 15.8273C46.4373 11.1421 40.0872 8.50337 33.4614 8.48828ZM46.89 27.774L32.6043 42.0597C32.2025 42.461 31.6579 42.6864 31.09 42.6864C30.5221 42.6864 29.9775 42.461 29.5757 42.0597L20.0329 32.6311C19.6316 32.2293 19.4062 31.6847 19.4062 31.1168C19.4062 30.549 19.6316 30.0043 20.0329 29.6026C20.2299 29.4004 20.4653 29.2397 20.7254 29.13C20.9855 29.0203 21.2649 28.9638 21.5471 28.9638C21.8294 28.9638 22.1088 29.0203 22.3689 29.13C22.629 29.2397 22.8644 29.4004 23.0614 29.6026L31.09 37.6026L43.8614 24.9168C44.0219 24.6347 44.2443 24.3926 44.512 24.209C44.7797 24.0253 45.0856 23.9049 45.4066 23.8568C45.7277 23.8087 46.0554 23.8341 46.3652 23.9312C46.6749 24.0283 46.9586 24.1945 47.1947 24.4173C47.4308 24.64 47.6133 24.9135 47.7282 25.2171C47.8432 25.5207 47.8877 25.8464 47.8583 26.1697C47.829 26.493 47.7266 26.8054 47.5588 27.0833C47.3911 27.3612 47.1624 27.5974 46.89 27.774Z" fill="#00C22A"/>
</svg>
