<svg xmlns="http://www.w3.org/2000/svg" width="24" height="24" viewBox="0 0 24 24">
  <g id="Group_36906" data-name="Group 36906" transform="translate(13058 -9705)">
    <g id="c7d2221b43fdf0df9991d38ba129c310" transform="translate(-13056.861 9706.137)">
      <path id="Path_23594" data-name="Path 23594" d="M.2,14.058l1.814,1.814a.679.679,0,0,0,.96,0,2.037,2.037,0,1,1,2.88,2.881.679.679,0,0,0,0,.96l1.814,1.814a.679.679,0,0,0,.96,0l12.9-12.9a.678.678,0,0,0,0-.96L19.711,5.853a.679.679,0,0,0-.96,0,2.037,2.037,0,1,1-2.88-2.881.679.679,0,0,0,0-.96L14.057.2a.679.679,0,0,0-.96,0L.2,13.1a.678.678,0,0,0,0,.96ZM8.825,6.391l.538.538a.679.679,0,0,0,.96-.96l-.538-.538,3.792-3.792.9.9a3.4,3.4,0,0,0,4.7,4.705l.9.9-3.792,3.792-.538-.538a.679.679,0,1,0-.96.96l.538.538L8.146,20.086l-.9-.9a3.4,3.4,0,0,0-4.7-4.705l-.9-.9Z" fill="#fff"/>
      <path id="Path_23595" data-name="Path 23595" d="M31.878,22.838a.679.679,0,0,0,.96-.96l-.679-.679a.679.679,0,1,0-.96.96l.679.679ZM33.236,24.2l.679.679a.679.679,0,0,0,.96-.96l-.679-.679a.679.679,0,1,0-.96.96Z" transform="translate(-20.478 -13.871)" fill="#fff"/>
    </g>
    <rect id="Rectangle_1167" data-name="Rectangle 1167" width="24" height="24" transform="translate(-13058 9705)" fill="none"/>
  </g>
</svg>
