<svg width="24" height="24" viewBox="0 0 24 24" fill="none" xmlns="http://www.w3.org/2000/svg">
<path d="M4.1989 18.3213L4.0944 18.6665C3.90202 19.3027 4.00261 19.9634 4.37858 20.5278C4.82585 21.1982 5.5944 21.6348 6.48698 21.7246C7.30143 21.8062 8.11979 21.8701 8.94011 21.9155C8.95866 21.9165 8.97722 21.917 8.99577 21.917C9.52311 21.917 9.96354 21.5049 9.99284 20.9722C10.0241 20.4209 9.60124 19.9487 9.04948 19.9185C8.26042 19.875 7.47136 19.813 6.68717 19.7344C6.3444 19.7002 6.12565 19.5425 6.04265 19.418C5.98307 19.3291 5.99968 19.2754 6.00847 19.2451L6.11296 18.9009C6.43717 17.835 7.39616 16.9487 8.67839 16.5303C10.8268 15.8262 13.2272 15.8496 15.2546 16.5078C15.2917 16.5229 15.3278 16.5356 15.3688 16.5488C15.3893 16.5576 15.4098 16.5654 15.4303 16.5728C15.8102 16.707 16.1628 16.8823 16.4782 17.0947C16.9342 17.4043 17.5573 17.2817 17.8659 16.8247C18.1745 16.3667 18.0534 15.7451 17.5954 15.4365C17.1491 15.1357 16.6559 14.8872 16.1296 14.6987C16.0788 14.6777 16.0182 14.6558 15.9382 14.6299C13.3854 13.7939 10.6071 13.7944 8.05632 14.6294C6.15593 15.2495 4.71354 16.6289 4.1989 18.3213ZM11.9997 13C15.0622 13 17.5534 10.5327 17.5534 7.5C17.5534 4.46728 15.0622 2 11.9997 2C8.93717 2 6.44597 4.46728 6.44597 7.5C6.44597 10.5327 8.93717 13 11.9997 13ZM11.9997 4C13.9596 4 15.5534 5.57031 15.5534 7.5C15.5534 9.42969 13.9596 11 11.9997 11C10.0397 11 8.44597 9.42969 8.44597 7.5C8.44597 5.57031 10.0397 4 11.9997 4Z" fill="white"/>
<path d="M20 23C21.6543 23 23 21.6543 23 20C23 18.3457 21.6543 17 20 17C18.6981 17 17.5984 17.8385 17.1843 19H12.0273C11.4746 19 11.0273 19.4478 11.0273 20V22C11.0273 22.5522 11.4746 23 12.0273 23C12.5801 23 13.0273 22.5522 13.0273 22V21H14V22C14 22.5522 14.4473 23 15 23C15.5527 23 16 22.5522 16 22V21H17.1843C17.5985 22.1615 18.6981 23 20 23ZM20 19C20.5518 19 21 19.4487 21 20C21 20.5513 20.5518 21 20 21C19.4482 21 19 20.5513 19 20C19 19.4487 19.4482 19 20 19Z" fill="white"/>
</svg>
