<svg width="24" height="24" viewBox="0 0 24 24" fill="none" xmlns="http://www.w3.org/2000/svg">
<g clip-path="url(#clip0_5149_23790)">
<path d="M11.9995 0.499512C18.3507 0.499512 23.4993 5.64842 23.4995 11.9995C23.4995 18.3508 18.3508 23.4995 11.9995 23.4995C5.64842 23.4993 0.499512 18.3507 0.499512 11.9995C0.499723 5.64855 5.64855 0.499723 11.9995 0.499512Z" stroke="white" stroke-width="0.8"/>
<path d="M11.9948 15.0468C10.5323 15.0468 9.35107 13.8656 9.35107 12.4031V7.26558C9.35107 5.80308 10.5323 4.62183 11.9948 4.62183C13.4573 4.62183 14.6386 5.80308 14.6386 7.26558V12.4031C14.6433 13.8656 13.4573 15.0468 11.9948 15.0468Z" fill="white"/>
<path d="M16.6263 12.6094C16.3919 12.6094 16.1997 12.7828 16.1763 13.0172C15.9654 15.1359 14.1794 16.8047 11.9997 16.8047C9.82004 16.8047 8.02942 15.1406 7.82317 13.0172C7.79973 12.7922 7.60754 12.6094 7.37317 12.6094C7.11067 12.6094 6.89973 12.8344 6.92317 13.0969C7.15286 15.5297 9.10286 17.4656 11.5404 17.6766V18.9234C11.5404 19.1719 11.7419 19.3734 11.9904 19.3734C12.2388 19.3734 12.4404 19.1719 12.4404 18.9234V17.6719C14.8779 17.4563 16.8279 15.5203 17.0716 13.0922C17.095 12.8391 16.8841 12.6094 16.6263 12.6094Z" fill="white"/>
</g>
<defs>
<clipPath id="clip0_5149_23790">
<rect width="24" height="24" fill="white"/>
</clipPath>
</defs>
</svg>
