<svg width="67" height="67" viewBox="0 0 67 67" fill="none" xmlns="http://www.w3.org/2000/svg">
<circle cx="33.595" cy="33.4878" r="33.3647" fill="#FF0004" fill-opacity="0.2"/>
<path d="M33.595 14.2079C31.697 14.1361 30.2904 15.6878 29.6809 17.3389C24.661 27.3786 19.6446 37.413 14.6271 47.4459C13.437 49.9645 15.7454 53.0705 18.481 52.745C23.5105 52.7353 28.5655 52.745 33.595 52.745C38.624 52.745 43.6795 52.7353 48.7085 52.745C51.4451 53.0705 53.7534 49.9645 52.5624 47.4459C47.5454 37.413 42.5304 27.3796 37.5086 17.3389C36.9001 15.6878 35.493 14.1361 33.595 14.2074V14.2079ZM33.595 25.769C34.106 25.7691 34.5961 25.9722 34.9574 26.3335C35.3187 26.6949 35.5218 27.1849 35.5219 27.6959L34.5585 41.1834H32.6315L31.6681 27.6959C31.6682 27.1849 31.8713 26.6949 32.2326 26.3335C32.5939 25.9722 33.084 25.7691 33.595 25.769ZM33.595 43.1108C34.1059 43.111 34.5959 43.3139 34.9572 43.6752C35.3186 44.0364 35.5217 44.5263 35.5219 45.0373C35.5219 45.5484 35.3189 46.0385 34.9576 46.4C34.5962 46.7614 34.1061 46.9645 33.595 46.9647C33.084 46.9645 32.5939 46.7615 32.2326 46.4002C31.8713 46.0388 31.6682 45.5488 31.6681 45.0378C31.6682 44.5267 31.8713 44.0367 32.2326 43.6754C32.5939 43.314 33.084 43.111 33.595 43.1108Z" fill="#FF0000"/>
</svg>
