<svg width="26" height="31" viewBox="0 0 26 31" fill="none" xmlns="http://www.w3.org/2000/svg">
<path fill-rule="evenodd" clip-rule="evenodd" d="M2.12208 7.57492V16.4618C2.12208 23.0972 7.99994 26.2872 12.721 28.8509L12.847 28.9183L12.9747 28.8509C17.6959 26.2872 23.5737 23.0972 23.5737 16.4618V7.57492L12.847 2.52204L2.12206 7.57492H2.12208ZM12.847 30.8167C12.7015 30.8167 12.556 30.7794 12.423 30.7085L11.8747 30.4104C7.00997 27.7687 0.3479 24.1529 0.3479 16.4618V7.01247C0.3479 6.66829 0.546618 6.35603 0.857089 6.20878L12.4709 0.738967C12.7086 0.625423 12.9872 0.625423 13.2249 0.738967L24.8387 6.20881C25.1492 6.35606 25.3479 6.66832 25.3479 7.01251V16.4618C25.3479 24.1529 18.6841 27.7687 13.821 30.4104L13.2728 30.7085C13.1398 30.7794 12.9943 30.8167 12.847 30.8167ZM20.1856 22.2137H15.2622L13.8233 20.7766V19.4601H11.9888V17.6257H10.6742L9.75515 16.7066C9.72499 16.7084 9.69482 16.7084 9.66466 16.7084C6.89872 16.7084 4.64905 14.4587 4.64905 11.6928C4.64905 8.92684 6.89872 6.67539 9.66466 6.67539C12.4306 6.67539 14.6803 8.92684 14.6803 11.6928C14.6803 11.7229 14.6803 11.7531 14.6785 11.7815L20.1856 17.2903L20.1856 22.2137ZM15.9967 20.4395H18.4114V18.0248L12.828 12.4379L12.8901 11.8525C12.9061 9.90618 11.4513 8.44959 9.66466 8.44959C7.87806 8.44959 6.42323 9.90618 6.42323 11.6928C6.42323 13.4812 7.87806 14.9342 9.66466 14.9342L10.4063 14.8508L11.4087 15.8515H13.763V17.686H15.5975V20.0421L15.9967 20.4395ZM11.0735 11.7435C11.0735 12.478 10.4774 13.0742 9.74291 13.0742C9.00839 13.0742 8.41227 12.478 8.41227 11.7435C8.41227 11.009 9.00839 10.4129 9.74291 10.4129C10.4774 10.4129 11.0735 11.009 11.0735 11.7435Z" fill="white"/>
</svg>
