<svg width="26" height="25" viewBox="0 0 26 25" fill="none" xmlns="http://www.w3.org/2000/svg">
<path fill-rule="evenodd" clip-rule="evenodd" d="M5.33855 1.20399C5.8524 0.690142 6.68551 0.690142 7.19936 1.20399L11.8046 5.80925C12.3185 6.3231 12.3185 7.15621 11.8046 7.67006C11.2908 8.18391 10.4577 8.18391 9.94381 7.67006L7.58474 5.31099V19.2397C7.58474 19.9663 6.99564 20.5554 6.26895 20.5554C5.54226 20.5554 4.95316 19.9663 4.95316 19.2397V5.31099L2.59409 7.67006C2.08025 8.18391 1.24713 8.18391 0.733286 7.67006C0.219438 7.15621 0.219438 6.3231 0.733286 5.80925L5.33855 1.20399ZM19.4268 6.08176C20.1535 6.08176 20.7426 6.67086 20.7426 7.39755V20.0104L23.1017 17.6514C23.6156 17.1375 24.4487 17.1375 24.9625 17.6514C25.4764 18.1652 25.4764 18.9983 24.9625 19.5122L20.3573 24.1174C19.8434 24.6313 19.0103 24.6313 18.4964 24.1174L13.8912 19.5122C13.3773 18.9983 13.3773 18.1652 13.8912 17.6514C14.405 17.1375 15.2381 17.1375 15.752 17.6514L18.1111 20.0104V7.39755C18.1111 6.67086 18.7002 6.08176 19.4268 6.08176Z" fill="white"/>
</svg>
