<svg width="26" height="26" viewBox="0 0 26 26" fill="none" xmlns="http://www.w3.org/2000/svg">
<path d="M12.8479 0.517334C10.3756 0.517334 7.95889 1.25045 5.90328 2.62396C3.84766 3.99748 2.24551 5.94971 1.29941 8.23379C0.353316 10.5179 0.105775 13.0312 0.58809 15.456C1.07041 17.8807 2.26091 20.108 4.00907 21.8562C5.75723 23.6043 7.98451 24.7948 10.4093 25.2771C12.834 25.7595 15.3474 25.5119 17.6314 24.5658C19.9155 23.6197 21.8678 22.0176 23.2413 19.962C24.6148 17.9063 25.3479 15.4896 25.3479 13.0173C25.344 9.70333 24.0258 6.52617 21.6824 4.18282C19.3391 1.83946 16.1619 0.521244 12.8479 0.517334ZM12.8479 23.2446C10.8251 23.2446 8.8478 22.6448 7.16594 21.521C5.48407 20.3972 4.17322 18.7999 3.39914 16.9311C2.62506 15.0623 2.42253 13.006 2.81715 11.0221C3.21177 9.03819 4.18582 7.21587 5.61613 5.78556C7.04644 4.35525 8.86877 3.3812 10.8527 2.98657C12.8366 2.59195 14.8929 2.79449 16.7617 3.56857C18.6305 4.34264 20.2278 5.6535 21.3516 7.33536C22.4754 9.01723 23.0752 10.9946 23.0752 13.0173C23.0719 15.7288 21.9933 18.3282 20.076 20.2455C18.1588 22.1627 15.5593 23.2413 12.8479 23.2446ZM13.9843 18.131V20.4037H11.7115V18.131H13.9843ZM17.3934 10.1764C17.3946 10.8579 17.2419 11.5309 16.9468 12.1452C16.6517 12.7595 16.2216 13.2992 15.6888 13.7241C14.8281 14.3911 14.2461 15.3543 14.0559 16.4264H11.7468C11.8472 15.5503 12.1221 14.7032 12.5552 13.935C12.9883 13.1669 13.5708 12.4932 14.2684 11.9537C14.5483 11.7296 14.7713 11.4425 14.919 11.1158C15.0668 10.7891 15.1351 10.4321 15.1185 10.0739C15.1019 9.71574 15.0008 9.36658 14.8234 9.05496C14.646 8.74335 14.3974 8.47813 14.0979 8.28097C13.7641 8.06279 13.38 7.93363 12.9822 7.90579C12.5844 7.87794 12.1861 7.95233 11.8252 8.12188C11.4402 8.30642 11.1171 8.59883 10.8952 8.96358C10.6732 9.32832 10.5621 9.74968 10.5752 10.1764C10.5752 10.4778 10.4555 10.7668 10.2423 10.98C10.0292 11.1931 9.7402 11.3128 9.43881 11.3128C9.13743 11.3128 8.84839 11.1931 8.63528 10.98C8.42217 10.7668 8.30245 10.4778 8.30245 10.1764C8.28554 9.30306 8.52652 8.44409 8.99523 7.70696C9.46395 6.96983 10.1396 6.38725 10.9377 6.03211C11.6451 5.71594 12.4208 5.58301 13.1931 5.64557C13.9655 5.70813 14.7097 5.96416 15.357 6.39006C15.9825 6.80414 16.4958 7.3666 16.8511 8.02727C17.2064 8.68793 17.3927 9.42627 17.3934 10.1764Z" fill="white"/>
</svg>
