<svg width="26" height="26" viewBox="0 0 26 26" fill="none" xmlns="http://www.w3.org/2000/svg">
<path fill-rule="evenodd" clip-rule="evenodd" d="M12.8479 12.5901C12.8479 11.8997 13.4075 11.3401 14.0979 11.3401H24.0979C24.7882 11.3401 25.3479 11.8997 25.3479 12.5901C25.3479 13.2804 24.7882 13.8401 24.0979 13.8401H14.0979C13.4075 13.8401 12.8479 13.2804 12.8479 12.5901Z" fill="white"/>
<path fill-rule="evenodd" clip-rule="evenodd" d="M19.464 7.9562C19.9522 7.46805 20.7436 7.46805 21.2318 7.9562L24.873 11.5975C25.4212 12.1456 25.4212 13.0346 24.873 13.5827L21.2318 17.224C20.7436 17.7121 19.9522 17.7121 19.464 17.224C18.9759 16.7358 18.9759 15.9444 19.464 15.4562L22.3301 12.5901L19.464 9.72397C18.9759 9.23582 18.9759 8.44436 19.464 7.9562Z" fill="white"/>
<path fill-rule="evenodd" clip-rule="evenodd" d="M0.3479 3.84009C0.3479 1.76902 2.02683 0.0900879 4.0979 0.0900879H15.9729C17.6987 0.0900879 19.0979 1.48918 19.0979 3.21509V3.84009C19.0979 4.53044 18.5382 5.09009 17.8479 5.09009C17.1575 5.09009 16.5979 4.53044 16.5979 3.84009V3.21509C16.5979 2.86992 16.318 2.59009 15.9729 2.59009H4.0979C3.40754 2.59009 2.8479 3.14973 2.8479 3.84009V21.3401C2.8479 22.0305 3.40753 22.5901 4.0979 22.5901H15.9729C16.318 22.5901 16.5979 22.3102 16.5979 21.9651V21.3401C16.5979 20.6497 17.1575 20.0901 17.8479 20.0901C18.5382 20.0901 19.0979 20.6497 19.0979 21.3401V21.9651C19.0979 23.6909 17.6987 25.0901 15.9729 25.0901H4.0979C2.02684 25.0901 0.3479 23.4112 0.3479 21.3401V3.84009Z" fill="white"/>
</svg>
