<svg width="26" height="20" viewBox="0 0 26 20" fill="none" xmlns="http://www.w3.org/2000/svg">
<path d="M15.1206 7.69447C15.1206 7.06687 14.6118 6.55811 13.9842 6.55811H13.416C9.96423 6.55811 7.16602 9.35629 7.16602 12.8081C7.16602 16.2599 9.96423 19.0581 13.416 19.0581H19.0978C22.5497 19.0581 25.3478 16.2599 25.3478 12.8081C25.3478 9.97754 23.4661 7.58638 20.8853 6.81746C20.2453 6.62677 19.666 7.15909 19.666 7.82697V7.88572C19.666 8.45117 20.0916 8.91436 20.6143 9.13015C22.0586 9.72629 23.0751 11.1484 23.0751 12.8081C23.0751 15.0047 21.2944 16.7854 19.0978 16.7854H13.416C11.2194 16.7854 9.43874 15.0047 9.43874 12.8081C9.43874 10.6115 11.2194 8.83083 13.416 8.83083H13.9842C14.6118 8.83083 15.1206 8.32208 15.1206 7.69447Z" fill="white"/>
<path d="M12.2797 0.876221C15.7315 0.876221 18.5297 3.67444 18.5297 7.12622C18.5297 10.578 15.7315 13.3762 12.2797 13.3762H11.7115C11.0839 13.3762 10.5752 12.8675 10.5752 12.2399C10.5752 11.6122 11.0839 11.1035 11.7115 11.1035H12.2797C14.4763 11.1035 16.257 9.32281 16.257 7.12622C16.257 4.92963 14.4763 3.14895 12.2797 3.14895H6.5979C4.40131 3.14895 2.62063 4.92963 2.62063 7.12622C2.62063 8.78588 3.63712 10.208 5.08146 10.8042C5.60413 11.0199 6.02972 11.4832 6.02972 12.0486V12.1074C6.02972 12.7752 5.45045 13.3076 4.81039 13.1169C2.22963 12.3479 0.3479 9.95679 0.3479 7.12622C0.3479 3.67444 3.14612 0.876221 6.5979 0.876221H12.2797Z" fill="white"/>
</svg>
