<svg width="26" height="16" viewBox="0 0 26 16" fill="none" xmlns="http://www.w3.org/2000/svg">
<path d="M24.8377 9.92253H22.8603V7.93993C22.8603 7.65824 22.6319 7.42972 22.3501 7.42972H13.3581V6.20983H17.1622C17.444 6.20983 17.6724 5.98141 17.6724 5.69962V1.09932C17.6724 0.817632 17.444 0.589111 17.1622 0.589111H8.53351C8.25178 0.589111 8.02331 0.817632 8.02331 1.09932V5.69962C8.02331 5.98141 8.25178 6.20983 8.53351 6.20983H12.3377V7.42972H3.34566C3.06392 7.42972 2.83545 7.65824 2.83545 7.93993V9.92253H0.858104C0.576319 9.92253 0.3479 10.1509 0.3479 10.4327V15.4075C0.3479 15.6892 0.576319 15.9177 0.858104 15.9177H5.8331C6.11489 15.9177 6.34331 15.6892 6.34331 15.4075V10.4327C6.34331 10.1509 6.11489 9.92253 5.8331 9.92253H3.85586V8.45013H12.3377V9.92253H10.3602C10.0785 9.92253 9.85004 10.1509 9.85004 10.4327V15.4075C9.85004 15.6892 10.0785 15.9177 10.3602 15.9177H15.3355C15.6172 15.9177 15.8457 15.6892 15.8457 15.4075V10.4327C15.8457 10.1509 15.6172 9.92253 15.3355 9.92253H13.3581V8.45013H21.8399V9.92253H19.8625C19.5808 9.92253 19.3523 10.1509 19.3523 10.4327V15.4075C19.3523 15.6892 19.5808 15.9177 19.8625 15.9177H24.8377C25.1194 15.9177 25.3479 15.6892 25.3479 15.4075V10.4327C25.3479 10.1509 25.1194 9.92253 24.8377 9.92253ZM9.04372 1.60947H16.652V5.18937H9.04372V1.60947ZM5.3229 14.8973H1.36831V10.9429H5.3229V14.8973ZM14.8252 14.8973H10.8705V10.9429H14.8252V14.8973ZM24.3275 14.8973H20.3727V10.9429H24.3275V14.8973Z" fill="white"/>
</svg>
