<svg width="26" height="23" viewBox="0 0 26 23" fill="none" xmlns="http://www.w3.org/2000/svg">
<path fill-rule="evenodd" clip-rule="evenodd" d="M4.796 18.2541C4.30293 18.2541 3.83715 18.5239 3.58119 18.9786C3.32406 19.4354 3.32406 20.0007 3.58119 20.4575C3.83715 20.9122 4.30293 21.182 4.796 21.182H20.8996C21.6583 21.182 22.3073 20.5455 22.3073 19.718C22.3073 18.8906 21.6583 18.2541 20.8996 18.2541H4.796ZM2.20733 18.2052C2.7359 17.2662 3.72 16.6775 4.796 16.6775H20.8996C22.5664 16.6775 23.8838 18.0578 23.8838 19.718C23.8838 21.3783 22.5664 22.7586 20.8996 22.7586H4.796C3.72 22.7586 2.7359 22.1698 2.20733 21.2308C1.67991 20.2939 1.67991 19.1421 2.20733 18.2052Z" fill="white"/>
<path fill-rule="evenodd" clip-rule="evenodd" d="M2.33926 4.70956C2.70201 4.58235 3.10362 4.73533 3.2898 5.07165C3.7362 5.87805 4.30843 6.76682 4.97053 7.52029C5.64015 8.28231 6.35269 8.84963 7.06738 9.09952C7.73797 9.33401 8.45767 9.30885 9.26848 8.78822C10.1196 8.24171 11.1022 7.12589 12.1467 5.09315C12.2818 4.83036 12.5524 4.66514 12.8479 4.66515C13.1433 4.66515 13.414 4.83036 13.549 5.09316C14.5935 7.12589 15.5761 8.24171 16.4272 8.78822C17.2381 9.30885 17.9577 9.33401 18.6283 9.09952C19.343 8.84963 20.0556 8.28231 20.7252 7.52029C21.3873 6.76682 21.9595 5.87804 22.406 5.07164C22.5921 4.73533 22.9938 4.58235 23.3565 4.70956C23.7192 4.83678 23.9373 5.20709 23.8727 5.58602L21.8231 17.598C21.7585 17.9768 21.4303 18.2537 21.0461 18.2537H4.64968C4.26548 18.2537 3.93724 17.9768 3.87262 17.598L1.82307 5.58602C1.75842 5.20709 1.97651 4.83678 2.33926 4.70956ZM12.8479 7.0695C11.9635 8.51955 11.0553 9.51452 10.1203 10.1148C8.89623 10.9009 7.66976 10.9803 6.547 10.5877C5.55146 10.2396 4.68425 9.53865 3.96366 8.75802L5.31486 16.6772H20.3809L21.7321 8.75799C21.0115 9.53863 20.1443 10.2396 19.1487 10.5877C18.026 10.9803 16.7995 10.9009 15.5754 10.1148C14.6405 9.51451 13.7322 8.51955 12.8479 7.0695Z" fill="white"/>
<path fill-rule="evenodd" clip-rule="evenodd" d="M12.8482 1.73722C12.0895 1.73722 11.4406 2.37373 11.4406 3.20119C11.4406 4.02864 12.0895 4.66515 12.8482 4.66515C13.2151 4.66515 13.571 4.51588 13.8367 4.24343C14.1029 3.97043 14.2559 3.59591 14.2559 3.20119C14.2559 2.37369 13.6071 1.73722 12.8482 1.73722ZM9.86401 3.20119C9.86401 1.54086 11.1814 0.160645 12.8482 0.160645C14.5152 0.160645 15.8325 1.5409 15.8325 3.20119C15.8325 4.00112 15.523 4.77236 14.9655 5.3441C14.4074 5.9164 13.6463 6.24173 12.8482 6.24173C11.1814 6.24173 9.86401 4.86151 9.86401 3.20119Z" fill="white"/>
<path fill-rule="evenodd" clip-rule="evenodd" d="M23.0955 3.23869C22.7411 3.23869 22.4198 3.53912 22.4198 3.9519C22.4198 4.36468 22.7411 4.66511 23.0955 4.66511C23.2681 4.66511 23.4379 4.59501 23.5663 4.4634C23.5664 4.46336 23.5664 4.46331 23.5664 4.46327M23.5665 4.46323C23.6953 4.33093 23.7712 4.14738 23.7712 3.9519C23.7712 3.53906 23.45 3.23869 23.0955 3.23869M20.8433 3.9519C20.8433 2.70618 21.8331 1.66211 23.0955 1.66211C24.3581 1.66211 25.3478 2.70624 25.3478 3.9519C25.3478 4.55279 25.1153 5.13298 24.6953 5.56385L24.6951 5.56402C24.2743 5.99546 23.6994 6.24169 23.0955 6.24169C21.8331 6.24169 20.8433 5.19761 20.8433 3.9519Z" fill="white"/>
<path fill-rule="evenodd" clip-rule="evenodd" d="M2.60015 3.23869C2.24569 3.23869 1.92448 3.53908 1.92448 3.9519C1.92448 4.36472 2.24569 4.66511 2.60015 4.66511C2.77283 4.66511 2.94259 4.59494 3.07092 4.46332L3.63533 5.01363L3.07092 4.46332C3.19992 4.33101 3.27583 4.14741 3.27583 3.9519C3.27583 3.53907 2.95462 3.23869 2.60015 3.23869ZM0.3479 3.9519C0.3479 2.70622 1.33759 1.66211 2.60015 1.66211C3.86274 1.66211 4.85241 2.70623 4.85241 3.9519C4.85241 4.55284 4.61984 5.13306 4.19975 5.56393C3.77901 5.99546 3.20402 6.24169 2.60015 6.24169C1.33759 6.24169 0.3479 5.19758 0.3479 3.9519Z" fill="white"/>
</svg>
