<svg width="26" height="26" viewBox="0 0 26 26" fill="none" xmlns="http://www.w3.org/2000/svg">
<path fill-rule="evenodd" clip-rule="evenodd" d="M12.8479 2.27788C6.90763 2.27788 2.09209 7.09342 2.09209 13.0337C2.09209 18.974 6.90762 23.7895 12.8479 23.7895C18.7882 23.7895 23.6037 18.974 23.6037 13.0337C23.6037 7.09342 18.7882 2.27788 12.8479 2.27788ZM0.3479 13.0337C0.3479 6.13013 5.94434 0.533691 12.8479 0.533691C19.7515 0.533691 25.3479 6.13013 25.3479 13.0337C25.3479 19.9373 19.7515 25.5337 12.8479 25.5337C5.94434 25.5337 0.3479 19.9373 0.3479 13.0337ZM12.9512 6.63834C9.41914 6.63834 6.55585 9.50165 6.55585 13.0337H4.81167C4.81167 8.53835 8.45585 4.89416 12.9512 4.89416V6.63834ZM12.9512 19.429C16.4833 19.429 19.3466 16.5657 19.3466 13.0337H21.0908C21.0908 17.529 17.4466 21.1732 12.9512 21.1732V19.429Z" fill="white"/>
</svg>
