<svg width="26" height="22" viewBox="0 0 26 22" fill="none" xmlns="http://www.w3.org/2000/svg">
<path fill-rule="evenodd" clip-rule="evenodd" d="M9.65641 2.39848C7.74691 2.39848 6.19896 3.94643 6.19896 5.85593C6.19896 7.76542 7.74691 9.31337 9.65641 9.31337C11.5659 9.31337 13.1139 7.76542 13.1139 5.85593C13.1139 3.94644 11.5659 2.39848 9.65641 2.39848ZM4.60322 5.85593C4.60322 3.06512 6.86561 0.802734 9.65641 0.802734C12.4472 0.802734 14.7096 3.06512 14.7096 5.85593C14.7096 8.64673 12.4472 10.9091 9.65641 10.9091C6.86561 10.9091 4.60322 8.64673 4.60322 5.85593ZM15.2415 1.60061C15.2415 1.15995 15.5987 0.802734 16.0394 0.802734C18.8301 0.802734 21.0926 3.06512 21.0926 5.85593C21.0926 8.64673 18.8301 10.9091 16.0394 10.9091C15.5987 10.9091 15.2415 10.5519 15.2415 10.1112C15.2415 9.67059 15.5987 9.31337 16.0394 9.31337C17.9488 9.31337 19.4968 7.76542 19.4968 5.85593C19.4968 3.94644 17.9488 2.39848 16.0394 2.39848C15.5987 2.39848 15.2415 2.04126 15.2415 1.60061ZM9.51959 13.0368C9.56722 13.0368 9.61286 13.0369 9.65641 13.0369C9.69996 13.0369 9.74561 13.0368 9.79323 13.0368C10.8855 13.0357 13.0221 13.0335 14.9247 13.5661C15.9217 13.8452 16.9245 14.289 17.6871 15.0164C18.4735 15.7664 18.9649 16.7824 18.9649 18.0901C18.9649 19.9996 17.417 21.5475 15.5075 21.5475H3.80535C1.89585 21.5475 0.3479 19.9996 0.3479 18.0901C0.3479 16.7824 0.839285 15.7664 1.62569 15.0164C2.38837 14.289 3.39116 13.8452 4.38812 13.5661C6.29075 13.0335 8.42731 13.0357 9.51959 13.0368ZM2.72703 16.1711C2.25013 16.626 1.94365 17.2272 1.94365 18.0901C1.94365 19.1183 2.77716 19.9518 3.80535 19.9518H15.5075C16.5357 19.9518 17.3692 19.1183 17.3692 18.0901C17.3692 17.2272 17.0627 16.626 16.5858 16.1711C16.0852 15.6937 15.3592 15.3449 14.4945 15.1028C12.81 14.6312 10.8651 14.6321 9.75884 14.6326C9.72385 14.6326 9.68969 14.6326 9.65641 14.6326C9.62313 14.6326 9.58898 14.6326 9.55398 14.6326C8.44776 14.6321 6.50284 14.6312 4.81831 15.1028C3.95357 15.3449 3.22765 15.6937 2.72703 16.1711ZM19.5121 13.9894C19.598 13.5572 20.0181 13.2765 20.4503 13.3624C21.5942 13.5898 22.7992 13.9899 23.7328 14.7243C24.7012 15.4861 25.3479 16.5884 25.3479 18.09C25.3479 19.9995 23.7999 21.5474 21.8905 21.5474C21.4498 21.5474 21.0926 21.1902 21.0926 20.7495C21.0926 20.3089 21.4498 19.9517 21.8905 19.9517C22.9186 19.9517 23.7522 19.1181 23.7522 18.09C23.7522 17.1156 23.3607 16.4619 22.7462 15.9785C22.0968 15.4677 21.1742 15.1332 20.1392 14.9275C19.707 14.8416 19.4262 14.4216 19.5121 13.9894Z" fill="white"/>
</svg>
